<svg width="256" height="256" viewBox="0 0 256 256" fill="none" xmlns="http://www.w3.org/2000/svg">
<path d="M152.591 200.901H151.481L150.894 201.843L131.025 233.692L130.941 233.827L130.879 233.973C130.626 234.574 130.2 235.087 129.657 235.447C129.113 235.808 128.475 236 127.823 236C127.17 236 126.532 235.808 125.989 235.447C125.445 235.087 125.02 234.574 124.766 233.973L124.704 233.827L124.62 233.692L104.751 201.843L104.164 200.901H103.054H22.6084C17.4153 200.887 12.4386 198.819 8.76483 195.149C5.0919 191.479 3.01958 186.506 3 181.314V39.5872C3.01955 34.3984 5.08945 29.4277 8.75856 25.7586C12.4277 22.0894 17.3984 20.0196 22.5872 20H233.896C239.084 20.0196 244.055 22.0895 247.724 25.7586C251.393 29.4275 253.463 34.398 253.483 39.5866C253.483 39.5879 253.483 39.5893 253.483 39.5907V181.311C253.483 181.312 253.483 181.313 253.483 181.315C253.463 186.503 251.393 191.474 247.724 195.143C244.055 198.812 239.085 200.882 233.896 200.901C233.895 200.901 233.893 200.901 233.892 200.901L152.591 200.901ZM143.994 157.516C143.999 154.4 143.078 151.352 141.35 148.759C139.622 146.165 137.163 144.143 134.285 142.947C131.407 141.751 128.239 141.436 125.182 142.041C122.125 142.647 119.316 144.145 117.11 146.347C114.905 148.55 113.403 151.356 112.793 154.413C112.183 157.469 112.494 160.638 113.686 163.517C114.877 166.397 116.896 168.859 119.487 170.59C122.078 172.322 125.125 173.247 128.241 173.247C132.415 173.247 136.419 171.59 139.372 168.641C142.326 165.691 143.988 161.69 143.994 157.516ZM115.45 121.866C115.45 125.258 116.797 128.512 119.196 130.911C121.595 133.31 124.849 134.658 128.241 134.658C131.634 134.658 134.888 133.31 137.287 130.911C139.685 128.512 141.033 125.258 141.033 121.866V58.8489C141.033 55.4563 139.685 52.2027 137.287 49.8038C134.888 47.4049 131.634 46.0572 128.241 46.0572C124.849 46.0572 121.595 47.4049 119.196 49.8038C116.797 52.2027 115.45 55.4564 115.45 58.8489V121.866Z" stroke="#F8F8FF" stroke-width="4"/>
</svg>
