<svg width="256" height="256" viewBox="0 0 256 256" fill="none" xmlns="http://www.w3.org/2000/svg">
<path d="M132.5 8.34182C149.375 21.3757 163.419 37.8831 173.568 56.8053C160.553 60.9055 146.773 63.2705 132.5 63.6862V8.34182Z" fill="#FFFFFF" stroke="#FFFFFF"/>
<path d="M200.383 123.8C199.776 101.769 194.74 80.856 186.119 61.9065C199.001 56.8983 211.057 50.2555 222.073 42.2663C241.882 63.9152 254.289 92.4142 255.379 123.8H200.383Z" fill="#FFFFFF" stroke="#FFFFFF"/>
<path d="M137.958 1.21247C167.988 3.53553 195.085 16.2559 215.684 35.7844C205.378 43.1107 194.143 49.2046 182.152 53.7982C171.347 33.2234 156.212 15.3089 137.958 1.21247Z" fill="#FFFFFF" stroke="#FFFFFF"/>
<path d="M255.383 132.804C254.207 166.551 239.941 196.96 217.473 219.105C206.772 211.897 195.175 205.922 182.853 201.439C193.466 180.755 199.708 157.478 200.387 132.8L255.383 132.804Z" fill="#FFFFFF" stroke="#FFFFFF"/>
<path d="M132.5 191.913V132.8H191.386C190.69 156.497 184.579 178.821 174.21 198.574C160.949 194.596 146.964 192.313 132.5 191.913Z" fill="#FFFFFF" stroke="#FFFFFF"/>
<path d="M64.6136 132.8H123.5L123.496 191.917C109.036 192.313 95.0471 194.6 81.786 198.578C71.4207 178.821 65.3056 156.493 64.6136 132.8Z" fill="#FFFFFF" stroke="#FFFFFF"/>
<path d="M132.5 200.917C145.357 201.292 157.809 203.259 169.671 206.647C159.939 222.719 147.308 236.819 132.5 248.258V200.917Z" fill="#FFFFFF" stroke="#FFFFFF"/>
<path d="M177.617 64.9413C185.915 82.9362 190.771 102.831 191.386 123.8H132.5V72.6872C148.207 72.2515 163.346 69.579 177.617 64.9413Z" fill="#FFFFFF" stroke="#FFFFFF"/>
<path d="M64.6136 123.8C65.2285 102.831 70.0848 82.9362 78.3827 64.9414C92.65 69.5791 107.792 72.2515 123.5 72.6872V123.8H64.6136Z" fill="#FFFFFF" stroke="#FFFFFF"/>
<path d="M40.3142 35.7884C60.9133 16.2561 88.0099 3.53565 118.04 1.2125C99.7862 15.3054 84.6516 33.2236 73.8462 53.7983C61.8586 49.2085 50.6162 43.1146 40.3142 35.7884Z" fill="#FFFFFF" stroke="#FFFFFF"/>
<path d="M86.3282 206.648C98.1868 203.263 110.643 201.292 123.499 200.917V248.258C108.692 236.827 96.0606 222.719 86.3282 206.648Z" fill="#FFFFFF" stroke="#FFFFFF"/>
<path d="M210.613 225.369C190.728 242.313 165.587 253.247 137.964 255.383C154.227 242.833 168.001 227.241 178.459 209.448C189.874 213.481 200.642 218.868 210.613 225.369Z" fill="#FFFFFF" stroke="#FFFFFF"/>
<path d="M118.032 255.383C90.4095 253.247 65.2643 242.309 45.379 225.366C55.3577 218.864 66.1258 213.477 77.5408 209.444C87.9984 227.241 101.773 242.833 118.032 255.383Z" fill="#FFFFFF" stroke="#FFFFFF"/>
<path d="M73.1465 201.435C60.8204 205.918 49.227 211.893 38.5264 219.101C16.0576 196.96 1.79171 166.551 0.616295 132.8H55.6125C56.2947 157.478 62.5374 180.755 73.1465 201.435Z" fill="#FFFFFF" stroke="#FFFFFF"/>
<path d="M123.5 63.6823C109.231 63.2704 95.4514 60.9016 82.4322 56.8013C92.5815 37.8829 106.625 21.3718 123.5 8.34164V63.6823Z" fill="#FFFFFF" stroke="#FFFFFF"/>
<path d="M0.616245 123.8C1.70619 92.4142 14.1129 63.9152 33.9222 42.2663C44.9384 50.2555 56.9941 56.8945 69.8763 61.9064C61.2554 80.856 56.2229 101.769 55.6125 123.8H0.616245Z" fill="#FFFFFF" stroke="#FFFFFF"/>
</svg>
