<svg width="256" height="256" viewBox="0 0 256 256" fill="none" xmlns="http://www.w3.org/2000/svg">
<path d="M109.909 2.14769C49.3774 11.407 5.32726 58.5997 1.43167 118.337C-1.56494 158.959 11.0208 191.516 39.7883 218.696C89.532 266.188 164.148 267.084 213.592 221.385C266.632 171.802 269.029 93.5462 218.986 39.4837C193.814 12.3031 147.367 -3.52737 109.909 2.14769ZM123.394 36.4968V64.5735L113.805 63.08C97.9225 60.0932 83.2391 56.2102 79.0438 53.2233C75.7476 51.1325 76.3469 48.4443 82.3401 39.185C86.2357 32.6139 92.2289 25.4454 95.2255 22.7572C101.518 17.3808 117.4 8.42014 121.296 8.12144C122.495 8.12144 123.394 20.965 123.394 36.4968ZM150.363 14.0952C162.05 20.069 184.525 45.7561 181.828 49.9378C180.03 52.9247 156.356 60.3918 142.272 63.08L132.383 64.5735V36.4968C132.383 18.8742 133.582 8.12144 135.38 8.12144C137.178 8.12144 143.771 10.8096 150.363 14.0952ZM85.6364 23.9519C80.8418 29.3283 74.8486 36.7955 72.1516 40.9771C67.3571 48.1456 67.0574 48.1456 59.2662 43.0679C49.3774 36.4968 50.8757 34.406 70.3537 23.0558C91.0303 11.407 96.1245 11.7057 85.6364 23.9519ZM190.817 26.3414L205.501 35.6007L198.309 40.9771C194.114 43.964 190.817 46.3535 190.518 46.0548C179.131 32.9126 169.242 17.0821 172.238 17.0821C174.336 17.0821 182.727 21.2637 190.817 26.3414ZM62.5625 54.7168C63.1618 56.8076 61.9632 65.1709 59.2662 73.5341C56.8689 81.8974 53.8723 96.8318 52.6737 106.688L50.5761 124.61H28.7008H6.52591L8.32387 111.766C11.3205 92.3515 19.711 72.6381 31.9971 55.9115L43.0845 40.9771L52.0744 46.0548C57.1686 49.0417 61.6635 52.9247 62.5625 54.7168ZM218.087 49.0417C230.373 63.08 243.558 91.4554 245.356 108.481L247.154 124.61H227.676H208.198L206.1 106.39C204.901 96.2344 201.605 80.4039 198.609 70.8459L193.215 53.522L201.006 47.5483C210.895 39.7824 209.396 39.4837 218.087 49.0417ZM116.202 70.8459C123.394 70.8459 123.394 71.4433 123.394 97.7278V124.61H90.431H57.4683L59.2662 111.766C61.6635 93.2475 66.7578 69.9499 69.7544 64.2748C72.1516 59.7945 73.6499 59.7945 90.7306 65.1709C100.619 68.1577 112.306 70.8459 116.202 70.8459ZM188.72 63.9761C192.016 69.9499 197.11 92.9488 199.508 111.766L201.306 124.61H166.845H132.383V97.7278V70.8459L140.774 70.5472C145.269 70.5472 156.356 68.1577 165.346 64.8722C186.322 58.0023 185.723 58.0023 188.72 63.9761ZM52.6737 149.102C53.5727 159.556 56.5693 174.491 58.9666 182.555C64.6601 201.373 64.9598 199.879 54.172 207.944L44.8825 214.814L37.9903 208.242C23.6066 194.801 2.63032 142.232 8.02421 133.57C8.92319 131.778 19.1117 130.584 30.1991 130.584H50.5761L52.6737 149.102ZM123.394 156.868V183.451L103.316 187.932C91.9293 190.62 80.2425 193.607 76.6466 194.801C71.2527 196.594 69.7544 195.1 66.7578 183.75C62.2628 167.92 57.7679 135.96 59.5659 132.674C60.1652 131.48 74.8486 130.584 92.2289 130.584H123.394V156.868ZM198.908 145.518C197.71 161.05 193.814 180.166 189.619 191.217L186.622 198.684L172.238 193.308C164.447 190.321 152.161 187.036 145.269 185.841L132.383 183.75V157.167V130.285L166.245 131.181L199.807 132.077L198.908 145.518ZM246.854 132.077C249.851 135.064 242.659 164.933 235.467 179.867C231.571 187.932 224.679 199.282 219.884 204.957L211.194 215.411L202.204 208.84L192.915 202.269L198.309 184.646C201.605 175.088 204.901 158.959 206.1 148.803L208.198 130.584H226.777C236.965 130.584 245.955 131.181 246.854 132.077ZM123.394 220.19C123.394 250.357 122.195 251.552 105.114 240.202C95.2255 233.631 75.4479 210.333 75.4479 205.256C75.4479 201.671 101.219 193.905 113.805 193.607L123.394 193.308V220.19ZM172.238 200.775L183.925 205.554L178.831 213.619C166.845 232.137 148.266 247.072 136.878 247.072C133.282 247.072 132.383 242.293 132.383 219.891V192.412L146.767 194.204C154.558 195.1 165.946 198.087 172.238 200.775ZM79.3435 224.969C89.8316 240.202 90.1313 241.397 83.8384 239.605C79.9428 238.41 73.0506 234.826 67.9564 231.839C48.7781 219.891 49.3774 220.787 57.4683 214.216C61.6635 210.931 65.5591 208.242 66.4581 208.242C67.3571 208.242 73.3503 215.71 79.3435 224.969ZM198.908 215.411C204.002 218.995 204.002 219.593 198.908 223.774C196.211 226.462 188.12 231.241 180.929 234.826L168.043 241.397L177.932 226.462C188.42 210.632 190.817 209.138 198.908 215.411Z" fill="#F8F8FF"/>
</svg>
