<svg width="256" height="256" viewBox="0 0 256 256" fill="none" xmlns="http://www.w3.org/2000/svg">
<path d="M48.1404 16.0127C48.1397 16.0128 48.1335 16.0152 48.1215 16.0207C48.1347 16.0157 48.1412 16.0126 48.1404 16.0127ZM48.871 18.2176C48.7195 18.3606 48.5442 18.5101 48.3479 18.6457C48.1489 18.7832 47.6781 19.0863 47.0243 19.1707C46.6588 19.2179 46.1544 19.2061 45.6204 18.974C45.3571 18.8596 45.1283 18.7096 44.9335 18.5384C44.654 18.791 44.3845 19.0376 44.1253 19.2778C44.3897 19.7117 44.4705 20.1402 44.4909 20.4246C44.5166 20.7839 44.4606 21.0695 44.4243 21.2199C44.3519 21.5196 44.2405 21.7452 44.1949 21.8347C44.0193 22.18 43.75 22.5339 43.5769 22.757C43.3567 23.0409 43.0755 23.3833 42.7463 23.771C41.4325 25.3183 39.1416 27.8365 36.1964 30.895L36.1894 30.9021C25.3678 42.0517 16.1941 58.4134 10.5426 74.8694C4.86355 91.4054 2.91518 107.523 5.96873 118.263L5.97048 118.269C9.08104 129.317 18.4051 144.224 32.8994 161.326C47.3337 178.357 66.6966 197.334 89.574 216.511L89.578 216.514C105.135 229.609 119.28 238.955 129.416 243.49C134.564 245.794 138.312 246.685 140.58 246.506C141.652 246.421 142.122 246.12 142.333 245.899C142.532 245.69 142.816 245.222 142.816 244.114C142.816 243.088 142.544 242.649 142.393 242.486C142.265 242.347 141.984 242.144 141.297 242.144C138.929 242.144 135.934 241.266 132.861 240.02C129.71 238.743 126.193 236.959 122.683 234.902C115.707 230.814 108.489 225.487 104.082 220.606C97.7329 213.678 93.2605 206.886 90.393 199.377C87.5269 191.872 86.3161 183.787 86.3152 174.342C86.0859 146.788 101.972 122.005 126.991 111.012C134.481 107.684 144.57 105.906 154.257 105.647C163.905 105.389 173.579 106.627 180.167 109.674C189.765 114.007 199.206 121.325 206.623 129.493C214.006 137.622 219.632 146.869 221.22 155.169C221.785 158.108 222.318 159.331 222.806 159.889C223.087 160.211 223.542 160.543 225.261 160.543C226.073 160.543 226.621 160.527 227 160.495C226.98 160.305 226.945 160.056 226.886 159.737C226.691 158.682 226.314 157.24 225.747 155.2C222.039 141.895 215.519 130.817 205.502 121.235L205.493 121.226L205.483 121.217C200.722 116.567 197.765 113.991 192.153 110.971C186.394 107.872 177.878 104.328 161.958 97.8922L161.957 97.8917C142.749 90.117 122.097 76.9601 104.247 62.033C86.4185 47.1242 71.1843 30.2815 62.9813 15.0308L62.9759 15.0208L62.9706 15.0107L57.8517 5.28491L54.672 8.59189C53.2946 10.0768 52.149 11.5406 51.3925 12.6754C51.1073 13.1032 50.8979 13.4537 50.7564 13.719C50.7895 13.9029 50.8051 14.0741 50.8103 14.2243C50.8313 14.8217 50.7074 15.376 50.5479 15.8277C50.2514 16.668 49.6884 17.5544 48.871 18.2176Z" stroke="#F8F8FF" stroke-width="5.06486"/>
<path d="M141.588 122.501L141.587 122.501C126.041 127.251 113.972 137.373 106.402 151.862C103.39 157.68 101.849 165.956 101.904 174.397C101.959 182.832 103.603 191.053 106.612 196.768C109.17 201.449 115.409 209.417 121.575 216.311C124.639 219.738 127.617 222.823 130.024 225.033C131.234 226.143 132.251 226.988 133.033 227.539C133.414 227.808 133.69 227.972 133.871 228.062C134.215 228.024 134.306 227.901 134.354 227.836L134.355 227.835C134.485 227.661 134.7 227.179 134.659 226.211C134.577 224.276 133.483 221.366 131.046 218.522L131.029 218.502L131.012 218.482C116.68 201.044 117.456 175.121 132.866 157.577C150.882 136.957 179.662 134.602 201.185 152.095C204.792 154.957 208.261 156.488 210.597 156.825C211.674 156.98 212.237 156.845 212.455 156.75C212.324 156.58 212.159 156.375 211.959 156.134C211.219 155.246 210.115 154.026 208.712 152.553C205.913 149.615 202.013 145.77 197.657 141.749L197.641 141.734L197.625 141.72C177.969 122.946 159.525 117.014 141.588 122.501ZM134.009 228.122C134.009 228.122 134.002 228.119 133.989 228.115C134.003 228.12 134.009 228.122 134.009 228.122Z" stroke="#F8F8FF" stroke-width="5.06486"/>
<path d="M193.897 170.676L193.904 170.682C199.293 175.742 205.864 180.768 212.273 184.857C218.72 188.97 224.833 192.024 229.319 193.275L229.326 193.277L229.334 193.279C232.851 194.284 237.198 196.709 239.674 198.689L239.726 198.73L239.775 198.774C240.359 199.293 241.548 199.89 243.172 200.29C244.751 200.679 246.462 200.811 247.908 200.63L247.92 200.629C249.314 200.461 250.185 200.301 250.771 200.103C251.296 199.926 251.406 199.781 251.446 199.726C251.525 199.618 251.7 199.306 251.824 198.422C251.948 197.536 251.993 196.326 251.993 194.589V189.243H242.144H242.125L242.106 189.242C226.416 189.005 214.822 183.423 198.579 168.782L198.573 168.777C193.645 164.307 191.014 162.186 189.286 161.367C188.527 161.008 188.175 161.019 188.001 161.046C187.775 161.082 187.407 161.214 186.69 161.74C186.289 162.034 186.054 162.235 185.921 162.36C185.926 162.37 185.931 162.38 185.937 162.391C186.225 162.933 186.892 163.804 188.255 165.226C189.583 166.611 191.422 168.369 193.897 170.676Z" stroke="#F8F8FF" stroke-width="5.06486"/>
<path d="M155.1 178.32L155.099 178.319C153.631 175.835 152.524 174.016 151.603 172.701C150.653 171.343 150.07 170.776 149.72 170.551C149.556 170.446 149.527 170.435 149.302 170.493C148.871 170.604 148.208 170.931 147 171.697C146.996 171.716 146.992 171.739 146.988 171.769C146.947 172.073 146.978 172.71 147.324 173.807C148.013 175.993 149.674 179.172 152.5 183.46C158.114 191.977 167.868 204.195 181.927 220.392C183.31 221.983 184.713 222.409 185.933 222.328C187.248 222.241 188.683 221.535 189.89 220.273C192.313 217.74 193.125 213.829 190.734 210.695C190.237 210.238 189.315 209.655 188.139 209.171C186.897 208.659 185.658 208.377 184.742 208.377C182.48 208.377 180.087 207.198 177.876 205.676C175.573 204.091 173.075 201.855 170.527 199.177C165.422 193.811 159.908 186.449 155.1 178.32ZM147.016 171.641C147.016 171.641 147.016 171.641 147.015 171.643C147.016 171.641 147.016 171.641 147.016 171.641Z" stroke="#F8F8FF" stroke-width="5.06486"/>
<path d="M172.037 178.173L172.042 178.181L172.048 178.19C174.693 182.528 179.631 188.145 184.96 193.169C190.31 198.213 195.732 202.353 199.277 203.981C201.174 204.8 203.189 206.212 204.93 207.742C206.671 209.274 208.314 211.079 209.387 212.811C211.581 216.119 215.266 217.242 218.417 216.59C221.527 215.947 223.854 213.676 223.854 210.122C223.854 208.472 222.889 206.748 220.942 205.39C219.006 204.039 216.315 203.232 213.499 203.42L213.492 203.42L213.484 203.421C210.958 203.574 207.909 202.572 204.915 201.156C201.823 199.694 198.417 197.608 195.051 195.181C188.351 190.35 181.519 183.959 177.471 178.006L177.466 177.998C175.947 175.747 174.786 174.092 173.829 172.892C172.847 171.661 172.229 171.107 171.835 170.868C171.584 170.715 171.515 170.73 171.371 170.762C171.039 170.834 170.493 171.078 169.441 171.742C169.184 171.906 169.062 172.015 169.01 172.069C169.011 172.109 169.016 172.173 169.032 172.267C169.098 172.644 169.305 173.275 169.814 174.301C170.314 175.307 171.039 176.565 172.037 178.173ZM169.013 172.012C169.012 172.012 169.011 172.016 169.01 172.027C169.013 172.018 169.013 172.012 169.013 172.012Z" stroke="#F8F8FF" stroke-width="5.06486"/>
<path d="M133.898 196.264L133.889 196.269C133.878 196.291 133.852 196.349 133.829 196.46C133.763 196.782 133.751 197.383 133.961 198.339C134.38 200.25 135.528 202.908 137.429 206.136C141.203 212.543 147.579 220.588 155.456 228.354L155.462 228.36L155.468 228.366C159.662 232.56 163.745 236.87 166.959 240.453C168.565 242.243 169.965 243.866 171.058 245.21C172.109 246.501 172.996 247.679 173.459 248.528L173.468 248.545L173.477 248.562C175.091 251.628 178.632 252.91 182.075 252.336C185.529 251.76 187.837 249.556 187.837 246.59C187.837 244.022 187.135 242.367 186.088 241.302C185.021 240.217 183.265 239.408 180.51 239.211L180.5 239.21L180.491 239.21C177.727 238.991 174.515 237.524 171.329 235.549C168.064 233.524 164.523 230.77 161.039 227.617C154.091 221.33 147.143 213.247 142.921 205.744C141.119 202.591 139.748 200.249 138.627 198.531C137.477 196.768 136.726 195.879 136.206 195.454C136.002 195.288 135.895 195.245 135.871 195.236C135.864 195.237 135.849 195.238 135.828 195.242C135.562 195.291 135.056 195.511 133.898 196.264Z" stroke="#F8F8FF" stroke-width="5.06486"/>
<path d="M236.58 216.729L236.575 216.738L236.569 216.746C233.87 220.625 235.414 225.703 239.676 227.342L239.701 227.352L239.726 227.362C241.073 227.913 243.232 227.553 245.34 226.043C247.437 224.542 248.615 222.515 248.615 220.927C248.615 216.532 246.437 214.088 244.207 213.339C242.008 212.599 238.967 213.241 236.58 216.729Z" stroke="#F8F8FF" stroke-width="5.06486"/>
<path d="M202.99 231.398C202.989 231.397 202.988 231.404 202.988 231.419C202.99 231.406 202.99 231.398 202.99 231.398ZM202.991 231.551C202.994 231.585 202.998 231.626 203.004 231.673C203.054 232.072 203.214 232.68 203.535 233.495C204.17 235.109 205.274 237.135 206.637 239.2C207.993 241.254 209.543 243.253 211.02 244.82C212.528 246.421 213.699 247.291 214.352 247.558C214.813 247.674 215.592 247.662 216.686 247.311C217.798 246.954 219.02 246.313 220.161 245.475C221.302 244.638 222.275 243.667 222.941 242.718C223.629 241.737 223.854 240.977 223.854 240.51C223.854 239.295 222.778 237.356 220.674 235.683C219.694 234.904 218.64 234.311 217.674 233.976C216.687 233.634 215.978 233.62 215.558 233.728C214.002 234.15 212.4 234.237 211.001 234.004C209.747 233.795 208.024 233.212 207.107 231.684L207.099 231.67L207.091 231.657C206.935 231.39 206.266 230.887 205.001 230.887C203.89 230.887 203.238 231.275 202.991 231.551Z" stroke="#F8F8FF" stroke-width="5.06486"/>
</svg>
