<svg width="256" height="256" viewBox="0 0 256 256" fill="none" xmlns="http://www.w3.org/2000/svg">
<path d="M3.53269 118.955C-2.73112 96.9239 33.0771 29.7119 55.6735 4.02303C57.021 2.4911 59.4347 2.85524 60.385 4.66069L65.2114 13.8312C81.1939 43.545 125.089 80.2372 162.907 95.5443C194.647 108.375 197.573 109.951 207.253 119.405C217.607 129.31 224.361 140.79 228.187 154.522C230.438 162.626 230.213 163.076 225.261 163.076C221.209 163.076 219.858 161.5 218.733 155.647C215.807 140.34 197.573 120.306 179.114 111.977C166.959 106.349 142.197 107.025 128.016 113.328C103.929 123.908 88.6224 147.769 88.8475 174.331C88.8475 192.79 93.5747 205.396 105.955 218.902C114.284 228.131 133.868 239.611 141.297 239.611C143.773 239.611 145.349 241.187 145.349 244.114C145.349 256.494 119.237 244.789 87.947 218.452C42.0256 179.959 10.0607 142.141 3.53269 118.955Z" fill="#17347B"/>
<path d="M140.847 120.079C124.64 125.031 112.034 135.611 104.155 150.693C97.627 163.299 97.8521 185.584 104.38 197.965C109.783 207.87 130.042 230.605 133.644 230.605C138.596 230.605 138.371 223.177 132.968 216.874C119.462 200.441 120.138 175.905 134.769 159.247C151.877 139.663 179.115 137.412 199.6 154.07C207.253 160.148 215.132 161.273 215.132 156.321C215.132 155.42 208.154 147.992 199.374 139.888C179.34 120.754 159.981 114.226 140.847 120.079Z" fill="#17347B"/>
<path d="M185.193 159.698C181.816 162.174 182.266 163.299 192.171 172.529C203.201 182.883 218.958 193.013 228.638 195.714C231.789 196.615 235.841 198.866 238.092 200.667C240.118 202.468 244.62 203.593 248.222 203.143C253.85 202.468 254.525 201.567 254.525 194.589V186.71H242.144C227.287 186.485 216.257 181.308 200.275 166.901C190.595 158.122 188.569 157.222 185.193 159.698Z" fill="#17347B"/>
<path d="M145.574 169.603C140.622 172.754 151.877 189.637 180.015 222.052C187.443 230.606 199.599 217.775 192.621 208.996C191.045 207.42 187.443 205.844 184.742 205.844C178.889 205.844 166.734 193.013 157.279 177.031C151.427 167.126 150.526 166.451 145.574 169.603Z" fill="#17347B"/>
<path d="M168.085 169.603C165.608 171.179 165.834 172.98 169.885 179.508C175.513 188.737 190.37 202.694 198.249 206.296C201.4 207.646 205.452 211.248 207.253 214.174C212.881 222.728 226.387 220.027 226.387 210.122C226.387 204.72 220.084 200.443 213.331 200.893C205.902 201.343 187.219 187.837 179.565 176.582C173.487 167.577 172.362 166.902 168.085 169.603Z" fill="#17347B"/>
<path d="M132.518 194.14C127.565 197.292 137.695 214.4 153.678 230.157C162.007 238.486 169.885 247.265 171.236 249.741C175.738 258.295 190.37 255.819 190.37 246.59C190.37 240.512 186.993 237.135 180.69 236.685C172.136 236.01 153.227 218.902 145.124 204.495C137.92 191.889 137.02 191.214 132.518 194.14Z" fill="#17347B"/>
<path d="M234.49 215.299C230.888 220.477 232.914 227.455 238.767 229.706C243.719 231.732 251.148 226.33 251.148 220.927C251.148 210.347 240.343 206.745 234.49 215.299Z" fill="#17347B"/>
<path d="M200.724 230.381C198.699 233.307 208.603 248.164 213.555 249.965C218.058 251.316 226.386 245.238 226.386 240.51C226.386 235.783 219.183 230.156 214.906 231.281C212.43 231.956 209.954 231.506 209.278 230.381C207.703 227.679 202.3 227.679 200.724 230.381Z" fill="#17347B"/>
</svg>
