<svg width="256" height="256" viewBox="0 0 256 256" fill="none" xmlns="http://www.w3.org/2000/svg">
<path d="M115.904 9.05309L112.795 10.6504C111.051 11.5467 111.062 14.0438 112.814 14.925L131.072 24.1089L131.083 24.114L155.667 36.3326C156.33 36.6619 157.107 36.6669 157.774 36.3462L168.278 31.2937L168.289 31.2885L172.092 29.4356C173.871 28.5688 173.893 26.0415 172.13 25.1434L154.668 16.2521C154.666 16.2508 154.663 16.2495 154.661 16.2482C147.478 12.6567 140.822 9.3889 135.848 7.02131C133.358 5.83583 131.304 4.88348 129.823 4.2307C129.079 3.90287 128.503 3.66135 128.099 3.50573C128.081 3.49864 128.063 3.49182 128.045 3.48527C127.885 3.54148 127.686 3.61533 127.447 3.70856C126.716 3.99336 125.721 4.41555 124.529 4.9479C122.152 6.00855 119.072 7.46926 115.904 9.05309ZM127.632 3.34327C127.633 3.34399 127.648 3.34852 127.675 3.35468C127.645 3.34562 127.631 3.34254 127.632 3.34327ZM128.412 3.36837C128.424 3.36594 128.431 3.3643 128.431 3.36407C128.431 3.36385 128.425 3.36507 128.412 3.36837Z" stroke="#F8F8FF" stroke-width="4.79545"/>
<path d="M136.591 46.9764L136.599 46.9728L136.606 46.9691L137.592 46.4761C139.362 45.5912 139.359 43.0648 137.587 42.1843L120.151 33.52C120.15 33.5196 120.15 33.5192 120.149 33.5189C113.481 30.2223 107.208 27.1759 102.317 24.873C99.8697 23.7208 97.7795 22.7598 96.1637 22.0483C94.8192 21.4562 93.8976 21.0797 93.3816 20.8956C91.8502 21.3624 87.9129 22.9796 83.9538 25.0272C82.2331 25.922 82.2523 28.3909 83.9874 29.2584L102.455 38.4921L102.465 38.4972L127.154 50.6948C127.832 51.0298 128.629 51.0253 129.303 50.6824L136.591 46.9764Z" stroke="#F8F8FF" stroke-width="4.79545"/>
<path d="M70.5413 73.0905V107.379C70.5413 108.285 71.0522 109.114 71.8618 109.521L97.1844 122.255L97.1942 122.26L118.16 132.683C119.762 133.479 121.641 132.304 121.625 130.515L121.373 101.415L121.373 101.404L120.931 67.3502C120.919 66.4692 120.426 65.6654 119.645 65.2569L94.7004 52.2045L94.6857 52.1968L74.0359 41.5736C72.4402 40.7526 70.5413 41.9112 70.5413 43.7057V73.0905Z" stroke="#F8F8FF" stroke-width="4.79545"/>
<path d="M159.221 53.0119L159.217 53.0141L135.802 64.7934C134.992 65.2006 134.482 66.0293 134.482 66.9354V83.4812C134.482 88.8977 134.561 93.7794 134.7 97.2938C134.735 98.1946 134.774 98.9961 134.816 99.6878C136.243 99.0222 138.151 98.1121 140.43 97.0083C145.492 94.5573 152.353 91.1666 159.775 87.4155L159.775 87.4155L159.784 87.4109L184.308 75.1492C185.12 74.743 185.633 73.9128 185.633 73.0046V56.7866C185.633 49.5837 185.512 44.9021 185.226 42.0609C185.169 41.4936 185.107 41.0307 185.047 40.6568C184.795 40.7597 184.517 40.8763 184.211 41.0066C182.685 41.6576 180.586 42.6083 178.059 43.7922C173.01 46.1576 166.318 49.4235 159.221 53.0119ZM184.744 39.4196C184.744 39.4198 184.747 39.4246 184.751 39.4333C184.747 39.4239 184.745 39.4195 184.744 39.4196ZM186.457 40.1306C186.479 40.1261 186.49 40.1229 186.49 40.1226C186.49 40.1223 186.479 40.1245 186.457 40.1306Z" stroke="#F8F8FF" stroke-width="4.79545"/>
<path d="M150.696 114.564L150.704 114.568L150.711 114.572L158.446 118.314C159.13 118.645 159.931 118.633 160.604 118.28L171.554 112.538C174.569 110.893 178.367 108.874 182.266 106.8C187.596 103.966 193.116 101.03 197.092 98.8113L197.099 98.8076L197.105 98.804L201.886 96.1748C203.579 95.2434 203.531 92.7937 201.802 91.9293L201.664 91.8602C199.809 90.9326 197.992 90.066 196.471 89.3875C195.104 88.778 194.087 88.371 193.502 88.1832C190.753 89.3062 179.792 94.5976 167.051 100.968L149.686 109.81C147.913 110.713 147.948 113.258 149.745 114.112L150.696 114.564Z" stroke="#F8F8FF" stroke-width="4.79545"/>
<path d="M229.158 105.607L229.151 105.604L229.144 105.6L221.627 101.78C220.927 101.424 220.098 101.434 219.406 101.805L195.724 114.524L195.719 114.526L178.101 124.046C176.394 124.969 176.433 127.432 178.169 128.3L179.497 128.965L186.964 132.573C187.63 132.895 188.407 132.892 189.069 132.564L213.493 120.5C213.495 120.499 213.496 120.498 213.498 120.497C223.1 115.696 231.341 111.405 235.794 108.976C234 108.045 231.677 106.867 229.158 105.607Z" stroke="#F8F8FF" stroke-width="4.79545"/>
<path d="M55.3099 125.748L55.295 125.755L55.28 125.763C53.3184 126.71 51.5144 127.681 50.1152 128.505C50.4794 128.704 50.8748 128.917 51.3009 129.146C54.1157 130.658 58.198 132.794 63.2492 135.399C73.3478 140.608 87.2844 147.676 102.623 155.345C102.623 155.346 102.624 155.346 102.625 155.346L156.469 182.115C157.131 182.444 157.908 182.449 158.574 182.129L159.612 184.291L158.574 182.129L164.454 179.307L164.468 179.3L164.482 179.294C166.357 178.423 168.064 177.564 169.39 176.828C169.001 176.609 168.574 176.37 168.109 176.113C165.318 174.567 161.265 172.399 156.245 169.765C146.21 164.498 132.357 157.391 117.1 149.723L117.095 149.72L63.6195 122.675C62.9426 122.333 62.1436 122.331 61.4651 122.67L55.3099 125.748Z" stroke="#F8F8FF" stroke-width="4.79545"/>
<path d="M219.963 134.534L219.959 134.536L196.544 146.316C195.735 146.723 195.224 147.552 195.224 148.458V184.985C195.224 195.925 195.304 205.819 195.443 212.971C195.51 216.379 195.589 219.149 195.679 221.107C197.033 220.471 198.8 219.625 200.893 218.612C205.798 216.24 212.461 212.968 219.729 209.374C219.732 209.373 219.734 209.371 219.737 209.37L243.457 197.438C244.266 197.031 244.777 196.202 244.777 195.296V158.769C244.777 148.983 244.681 140.035 244.518 133.156C244.409 128.528 244.27 124.941 244.122 122.661C239.702 124.68 230.465 129.224 219.963 134.534Z" stroke="#F8F8FF" stroke-width="4.79545"/>
<path d="M134.482 131.595V139.349C134.482 140.255 134.992 141.084 135.802 141.491L157.933 152.628L157.938 152.631L175.775 161.492C177.369 162.283 179.239 161.124 179.239 159.344V156.211V148.404C179.239 147.512 178.744 146.693 177.954 146.28L156.717 135.163C150.167 131.808 144.145 128.737 139.683 126.506C137.7 125.514 136.034 124.693 134.772 124.089C134.772 124.093 134.772 124.097 134.771 124.101C134.6 125.97 134.482 128.612 134.482 131.595Z" stroke="#F8F8FF" stroke-width="4.79545"/>
<path d="M25.4707 140.746L25.4445 140.76L25.4181 140.773L24.3814 141.292C22.6164 142.174 22.6135 144.692 24.3766 145.578L72.4183 169.735L72.4208 169.736L126.731 197.122C127.398 197.458 128.183 197.465 128.856 197.139L136.939 193.223L138.59 192.398C140.356 191.515 140.357 188.995 138.592 188.11L90.7295 164.111C90.7287 164.111 90.7279 164.11 90.7271 164.11C75.2235 156.358 61.0412 149.287 50.6758 144.154C45.492 141.587 41.2674 139.507 38.3108 138.07C36.831 137.351 35.6773 136.797 34.8827 136.424C34.7409 136.357 34.6124 136.298 34.497 136.244C34.481 136.251 34.4648 136.258 34.4482 136.265C33.9101 136.499 33.1596 136.847 32.2436 137.29C30.4176 138.174 28.0072 139.399 25.4707 140.746Z" stroke="#F8F8FF" stroke-width="4.79545"/>
<path d="M11.3977 175.394V195.296C11.3977 196.203 11.9086 197.031 12.7182 197.439L11.6543 199.554L12.7182 197.439L65.704 224.084C65.7041 224.084 65.7043 224.084 65.7044 224.084C74.8304 228.671 83.5047 233.039 91.1999 236.914C104.447 243.585 114.793 248.795 119.546 251.144C119.621 249.945 119.682 248.436 119.727 246.672C119.823 242.899 119.844 238.024 119.775 232.66C119.775 232.657 119.775 232.654 119.775 232.651L119.357 212.996C119.338 212.114 118.837 211.314 118.051 210.912L64.3372 183.445L64.3348 183.443L14.8847 158.228C13.2894 157.415 11.3977 158.573 11.3977 160.364V175.394Z" stroke="#F8F8FF" stroke-width="4.79545"/>
<path d="M181.009 188.603C181.068 188.588 181.079 188.58 181.023 188.598C181.02 188.599 181.016 188.6 181.013 188.602C181.011 188.602 181.01 188.602 181.009 188.603ZM178.71 189.632C177.503 190.21 175.936 190.987 174.084 191.921C169.824 194.071 164.125 197.021 157.972 200.217L138.094 210.724C137.325 211.13 136.836 211.922 136.818 212.792L136.398 232.511L136.087 247.129C136.049 248.93 137.937 250.129 139.551 249.327L156.586 240.866L156.592 240.863L177.913 230.203C178.725 229.796 179.238 228.966 179.238 228.058V208.643C179.238 202.514 179.119 196.961 178.921 192.956C178.857 191.66 178.786 190.544 178.71 189.632ZM178.415 187.274C178.412 187.264 178.411 187.26 178.411 187.26C178.411 187.261 178.412 187.265 178.415 187.274Z" stroke="#F8F8FF" stroke-width="4.79545"/>
</svg>
