<svg width="256" height="256" viewBox="0 0 256 256" fill="none" xmlns="http://www.w3.org/2000/svg">
<path d="M114.82 6.91438L111.7 8.51775C108.211 10.3104 108.233 15.3046 111.737 17.067L130.005 26.256L154.6 38.4798C155.925 39.1383 157.48 39.1483 158.813 38.507L169.328 33.4492L173.142 31.5911C176.7 29.8576 176.745 24.8029 173.218 23.0068L155.741 14.1076C141.354 6.91438 129.046 0.999993 128.087 0.999993C127.288 0.999993 121.214 3.71741 114.82 6.91438Z" fill="#17347B"/>
<path d="M82.8502 22.8986V22.8986C79.3895 24.6955 79.4274 29.6592 82.9151 31.403L101.393 40.6418L126.092 52.8445C127.448 53.5146 129.041 53.5054 130.39 52.8197L137.678 49.1137L138.664 48.6207C142.204 46.851 142.197 41.798 138.654 40.0371L121.214 31.3706C107.861 24.7694 96.0581 19.1539 93.7328 18.4887C93.5146 18.4263 93.2893 18.4364 93.0695 18.4927C91.5273 18.8876 87.1209 20.6896 82.8502 22.8986Z" fill="#17347B"/>
<path d="M68.1436 73.0905V107.379C68.1436 109.191 69.1654 110.849 70.7846 111.663L96.117 124.402L117.093 134.83C120.297 136.423 124.054 134.072 124.023 130.494L123.771 101.384L123.328 67.3191C123.305 65.557 122.318 63.9494 120.757 63.1324L95.7973 50.0723L75.1327 39.4414C71.9413 37.7996 68.1436 40.1167 68.1436 43.7057V73.0905Z" fill="#17347B"/>
<path d="M158.139 50.8722L134.724 62.6515C133.105 63.4659 132.084 65.1232 132.084 66.9354V83.4812C132.084 94.3509 132.404 103.143 132.883 103.143C133.363 103.143 145.991 97.0683 160.857 89.5555L185.38 77.2938C187.005 76.4815 188.031 74.821 188.031 73.0046V56.7866C188.031 42.4002 187.551 37.6048 186.113 37.7646C184.994 37.7646 172.366 43.679 158.139 50.8722Z" fill="#17347B"/>
<path d="M165.971 98.8269L148.598 107.673C145.052 109.479 145.121 114.569 148.715 116.278L149.667 116.73L157.402 120.473C158.77 121.135 160.371 121.109 161.718 120.403L172.685 114.652C179.718 110.816 191.387 104.741 198.261 100.905L203.041 98.2757C206.428 96.4128 206.332 91.5134 202.875 89.7847L202.736 89.7156C198.981 87.8379 195.338 86.1853 193.885 85.7964C193.506 85.695 193.116 85.7558 192.752 85.9005C190.123 86.9442 178.884 92.3704 165.971 98.8269Z" fill="#17347B"/>
<path d="M194.584 112.414L176.962 121.937C173.546 123.782 173.625 128.709 177.097 130.445L178.44 131.116L185.921 134.732C187.252 135.376 188.806 135.369 190.131 134.714L214.565 122.644C227.103 116.375 237.434 110.92 240.009 109.348C240.449 109.08 240.413 108.74 239.964 108.485C238.458 107.628 234.603 105.649 230.23 103.463L222.713 99.6425C221.314 98.9313 219.655 98.9501 218.272 99.6928L194.584 112.414Z" fill="#17347B"/>
<path d="M54.2376 123.603C49.602 125.841 45.7656 128.239 45.7656 128.718C45.7656 129.198 70.8618 142.146 101.553 157.491L155.402 184.262C156.726 184.92 158.279 184.931 159.612 184.291L165.492 181.468C169.968 179.39 173.644 177.312 173.644 176.673C173.644 176.033 148.708 162.926 118.177 147.58L64.7016 120.536C63.3478 119.851 61.7498 119.847 60.3928 120.526L54.2376 123.603Z" fill="#17347B"/>
<path d="M218.881 132.394L195.467 144.174C193.848 144.988 192.826 146.646 192.826 148.458V184.985C192.826 206.884 193.146 224.627 193.625 224.627C194.105 224.627 206.253 218.713 220.8 211.519L244.534 199.58C246.153 198.766 247.175 197.108 247.175 195.296V158.769C247.175 139.17 246.79 122.899 246.251 119.813C246.184 119.427 245.863 119.316 245.496 119.455C242.838 120.467 231.704 125.911 218.881 132.394Z" fill="#17347B"/>
<path d="M132.084 131.595V139.349C132.084 141.161 133.105 142.818 134.724 143.633L156.86 154.773L174.708 163.639C177.896 165.223 181.637 162.904 181.637 159.344V156.211V148.404C181.637 146.62 180.646 144.983 179.066 144.155L157.82 133.033C144.712 126.32 133.682 120.725 133.043 120.725C132.564 120.725 132.084 125.52 132.084 131.595Z" fill="#17347B"/>
<path d="M24.3458 138.629L23.3091 139.147C19.7791 140.912 19.7734 145.948 23.2994 147.72L71.3412 171.877L125.651 199.263C126.985 199.936 128.556 199.948 129.901 199.297L137.998 195.375L139.662 194.543C143.194 192.777 143.197 187.737 139.667 185.967L91.8018 161.966C60.7912 146.461 35.0556 133.673 34.5761 133.673C34.0965 133.673 29.4609 135.911 24.3458 138.629Z" fill="#17347B"/>
<path d="M9 175.394V195.296C9 197.109 10.0218 198.766 11.641 199.581L64.6272 226.226C93.0789 240.526 117.227 252.744 120.902 254.472C121.219 254.621 121.535 254.604 121.615 254.264C122.091 252.263 122.311 243.397 122.173 232.62L121.754 212.945C121.716 211.181 120.714 209.58 119.143 208.777L65.4265 181.309L15.9739 156.092C12.7833 154.465 9 156.783 9 160.364V175.394Z" fill="#17347B"/>
<path d="M156.859 198.093L136.974 208.604C135.435 209.417 134.458 211.001 134.421 212.741L134.001 232.46L133.69 247.078C133.613 250.681 137.39 253.078 140.618 251.474L157.659 243.01L178.985 232.347C180.61 231.535 181.636 229.874 181.636 228.058V208.643C181.636 196.335 181.156 186.264 180.517 186.264C179.718 186.264 169.168 191.699 156.859 198.093Z" fill="#17347B"/>
</svg>
