<svg width="256" height="256" viewBox="0 0 256 256" fill="none" xmlns="http://www.w3.org/2000/svg">
<path fill-rule="evenodd" clip-rule="evenodd" d="M251.581 160.704L165.95 111.35L147.252 12.1347C147.084 10.8505 146.592 9.63028 145.822 8.58885C145.052 7.54742 144.029 6.71906 142.851 6.18175L132.675 2.41664C131.778 2.07171 130.813 1.93818 129.855 2.02641C128.898 2.11465 127.974 2.42228 127.154 2.92544L6.13672 72.7072C4.20191 73.8858 2.71574 75.6764 1.91369 77.7952C1.02519 79.9787 0.77808 82.3703 1.20137 84.6894L20.0269 184.592C20.106 185.001 20.2843 185.384 20.546 185.708C20.8077 186.031 21.1448 186.286 21.5279 186.449L30.1011 190.138V199.22C30.0994 199.668 30.2161 200.109 30.4394 200.498C30.6628 200.886 30.9849 201.209 31.3731 201.433L118.072 251.524C120.3 252.752 122.805 253.391 125.348 253.382C127.405 253.421 129.438 252.931 131.25 251.957L252.319 182.099C253.192 181.626 253.941 180.955 254.507 180.14C255.115 179.285 255.443 178.263 255.448 177.214V166.453C255.373 165.238 254.976 164.064 254.296 163.053C253.616 162.042 252.679 161.231 251.581 160.704ZM6.13672 83.8499C5.91086 82.4684 6.06928 81.0515 6.59464 79.754C6.97587 78.7059 7.69094 77.812 8.62983 77.21L129.749 7.25023C129.899 7.14422 130.07 7.07317 130.251 7.04235C130.431 7.01152 130.616 7.02171 130.792 7.07215L140.968 10.8373C141.426 11.0153 141.986 11.6768 142.24 12.9997L160.811 111.529L34.5786 184.414L16.3127 87.6404C16.0868 86.259 16.2453 84.842 16.7706 83.5446C17.1593 82.508 17.8619 81.6187 18.7804 81.0006L132.599 15.2129C133.152 14.8609 133.549 14.3086 133.705 13.6713C133.861 13.0339 133.765 12.361 133.436 11.7929C133.108 11.2248 132.573 10.8056 131.943 10.6228C131.312 10.4399 130.636 10.5077 130.055 10.8118L16.3127 76.4977C14.3874 77.6806 12.9106 79.4707 12.1151 81.5857C11.2308 83.7788 10.9753 86.1751 11.3773 88.5054L29.4143 184.21L24.8096 182.226L6.13672 83.8499ZM249.8 177.672L128.757 247.556C127.461 248.112 126.056 248.369 124.646 248.307C123.237 248.245 121.859 247.867 120.616 247.2L35.1382 197.846V189.934L163.534 115.828L249.037 165.181C250.08 165.792 250.36 166.352 250.335 166.479C250.185 166.654 250.003 166.801 249.8 166.911L128.757 236.795C127.454 237.341 126.044 237.584 124.634 237.504C123.224 237.425 121.85 237.026 120.616 236.337L42.236 191.054C41.9453 190.887 41.6246 190.779 41.2922 190.735C40.9597 190.692 40.622 190.715 40.2984 190.803C39.9748 190.89 39.6715 191.04 39.406 191.245C39.1404 191.449 38.9178 191.704 38.7507 191.995C38.5837 192.286 38.4755 192.606 38.4324 192.939C38.3893 193.271 38.4121 193.609 38.4995 193.933C38.5869 194.256 38.7372 194.559 38.9418 194.825C39.1464 195.091 39.4013 195.313 39.692 195.48L118.072 240.763C120.3 241.991 122.805 242.63 125.348 242.62C127.405 242.66 129.438 242.17 131.25 241.196L250.36 172.483V177.24C250.211 177.427 250.019 177.575 249.8 177.672ZM20.8408 86.4447L36.4101 168.565C36.4853 168.961 36.6537 169.334 36.9014 169.652C37.1491 169.971 37.469 170.226 37.8347 170.396C38.1656 170.565 38.5319 170.652 38.9032 170.651C39.3511 170.646 39.7899 170.523 40.1752 170.295L152.823 104.965C153.297 104.695 153.672 104.279 153.892 103.78C154.111 103.281 154.165 102.724 154.044 102.192L138.424 20.1736C138.369 19.764 138.216 19.3739 137.976 19.037C137.737 18.7001 137.419 18.4267 137.05 18.2402C136.689 18.0528 136.287 17.9551 135.88 17.9551C135.473 17.9551 135.072 18.0528 134.71 18.2402L22.0619 83.7735C21.6072 84.0378 21.2456 84.4367 21.027 84.915C20.8083 85.3934 20.7432 85.9278 20.8408 86.4447ZM134.15 24.6511L148.727 101.48L40.7348 164.087L26.1578 87.2842L134.15 24.6511ZM97.1601 215.781L52.5893 190.061C52.2011 189.837 51.879 189.514 51.6556 189.125C51.4323 188.737 51.3156 188.296 51.3173 187.848C51.3174 187.406 51.4324 186.972 51.6509 186.589C51.8695 186.205 52.1841 185.885 52.5639 185.66L119.751 146.559C120.137 146.335 120.576 146.218 121.023 146.218C121.469 146.218 121.908 146.335 122.295 146.559L166.84 172.329C167.226 172.553 167.546 172.874 167.768 173.26C167.99 173.646 168.108 174.084 168.108 174.53C168.108 174.975 167.99 175.413 167.768 175.799C167.546 176.186 167.226 176.507 166.84 176.73L116.469 206.037L99.7041 215.781C99.3173 216.004 98.8786 216.121 98.4321 216.121C97.9855 216.121 97.5468 216.004 97.1601 215.781ZM97.3127 176.883L87.5438 171.261L75.816 178.079L85.6104 183.726L97.3127 176.883ZM114.103 167.114L104.334 161.492L92.6318 168.335L102.401 173.957L114.103 167.114ZM134.048 172.762L145.776 165.944L135.88 160.296L124.254 167.114L134.048 172.762ZM117.258 182.531L128.985 175.713L119.191 170.065L107.463 176.883L117.258 182.531ZM105.352 195.225L115.324 200.873L143.664 184.286L133.87 178.638L105.352 195.225ZM112.093 185.482L102.299 179.834L90.5711 186.652L100.264 192.3L112.093 185.482ZM83.4734 202.068L95.1758 195.251L85.5086 189.501L73.7808 196.319L83.4734 202.068ZM88.5359 204.867L98.3303 210.515L110.16 203.951L100.264 198.176L88.5359 204.867ZM138.907 175.56L148.701 181.208L160.429 174.39L150.635 168.742L138.907 175.56ZM130.792 157.345L121.023 151.723L109.295 158.541L119.089 164.188L130.792 157.345ZM80.4206 186.652L70.6517 181.055L58.9239 187.848L68.7182 193.495L80.4206 186.652ZM129.215 145.797L144.098 154.371L158.955 162.944L173.786 171.517C174.173 171.741 174.612 171.858 175.058 171.858C175.505 171.858 175.943 171.741 176.33 171.517L208.461 153.073C208.849 152.849 209.171 152.526 209.395 152.138C209.618 151.749 209.735 151.308 209.733 150.86C209.73 150.416 209.611 149.981 209.388 149.597C209.165 149.213 208.845 148.894 208.461 148.672L163.865 122.825C163.478 122.602 163.039 122.484 162.593 122.484C162.146 122.484 161.707 122.602 161.321 122.825L129.215 141.371C128.824 141.593 128.498 141.915 128.272 142.303C128.045 142.692 127.926 143.134 127.926 143.584C127.926 144.034 128.045 144.476 128.272 144.865C128.498 145.254 128.824 145.576 129.215 145.797ZM187.244 142.185L176.279 148.52L166.409 142.897L177.399 136.563L187.244 142.185ZM171.166 151.471L160.201 157.805L150.432 152.157L161.321 145.823L171.166 151.471ZM175.058 166.378L165.289 160.705L176.279 154.371L186.048 160.018L175.058 166.378ZM191.136 157.093L181.367 151.471L192.332 145.111L202.025 150.758L191.136 157.093ZM162.618 127.964L172.387 133.612L161.321 139.946L151.552 134.299L162.618 127.964ZM146.54 137.25L156.233 142.897L145.268 149.257L135.499 143.61L146.54 137.25ZM177.958 176.222L197.979 187.568C198.353 187.783 198.666 188.09 198.888 188.459C199.111 188.829 199.236 189.249 199.251 189.679C199.253 190.128 199.137 190.568 198.913 190.957C198.69 191.346 198.368 191.669 197.979 191.893L167.452 209.523C167.066 209.751 166.628 209.874 166.18 209.879C165.743 209.872 165.315 209.758 164.933 209.548L144.886 198.202C144.495 197.98 144.169 197.658 143.943 197.269C143.716 196.88 143.597 196.439 143.597 195.989C143.597 195.538 143.716 195.097 143.943 194.708C144.169 194.319 144.495 193.997 144.886 193.775L175.414 176.222C175.801 175.998 176.24 175.881 176.686 175.881C177.133 175.881 177.572 175.998 177.958 176.222ZM151.272 196.039L166.18 204.46L191.62 189.781L176.712 181.361L151.272 196.039Z" fill="#F8F8FF"/>
<path d="M100.457 92.0334C100.04 92.2687 99.5492 92.3383 99.0833 92.2276C94.4916 91.2009 89.6823 91.9039 85.5768 94.2023C81.4713 96.5007 78.3579 100.233 76.8329 104.684C76.7483 104.93 76.616 105.157 76.4437 105.353C76.2713 105.548 76.0622 105.707 75.8282 105.821C75.5942 105.935 75.34 106.002 75.0802 106.018C74.8203 106.033 74.56 105.998 74.3139 105.913C73.822 105.732 73.4206 105.366 73.1953 104.893C72.9699 104.419 72.9387 103.877 73.1083 103.381C74.9339 98.0093 78.6833 93.5034 83.6339 90.7318C88.5845 87.9603 94.3857 87.1195 99.9194 88.3713C100.431 88.4859 100.877 88.796 101.162 89.2356C101.448 89.675 101.55 90.2085 101.447 90.7225C101.38 90.9965 101.257 91.2543 101.087 91.4797C100.916 91.7048 100.702 91.8934 100.457 92.0334Z" fill="#F8F8FF"/>
<path d="M102.963 82.1912C102.526 82.4328 102.016 82.503 101.53 82.3882C94.3891 80.5565 86.8169 81.5437 80.384 85.145C73.9512 88.7464 69.1513 94.6855 66.9798 101.731C66.9268 102.008 66.8151 102.271 66.6522 102.501C66.4894 102.732 66.2791 102.925 66.0355 103.068C65.7918 103.21 65.5206 103.299 65.2398 103.328C64.959 103.357 64.6752 103.326 64.4075 103.237C64.1398 103.147 63.8943 103.001 63.6875 102.809C63.4807 102.617 63.3174 102.383 63.2086 102.123C63.0997 101.862 63.0478 101.581 63.0563 101.299C63.0648 101.017 63.1336 100.74 63.258 100.487C65.7417 92.5171 71.1855 85.8027 78.4693 81.7249C85.753 77.6473 94.3228 76.5164 102.415 78.565C102.798 78.6573 103.144 78.8616 103.41 79.1518C103.676 79.4419 103.85 79.8047 103.908 80.1939C103.967 80.5831 103.909 80.981 103.74 81.3368C103.572 81.6925 103.301 81.99 102.963 82.1912Z" fill="#F8F8FF"/>
<path d="M85.7739 108.878C85.5057 109.028 85.2063 109.114 84.8992 109.128C84.5923 109.142 84.2862 109.085 84.0051 108.961C83.765 108.858 83.5479 108.709 83.3666 108.521C83.1853 108.333 83.0434 108.111 82.9495 107.868C82.8555 107.624 82.8112 107.364 82.8193 107.103C82.8273 106.842 82.8877 106.586 82.9966 106.349C84.1589 103.654 86.176 101.418 88.7364 99.9844C91.2968 98.551 94.2578 98.0006 97.1622 98.4182C97.4199 98.4527 97.6684 98.5377 97.8933 98.6681C98.1179 98.7986 98.315 98.9723 98.473 99.1788C98.6307 99.3855 98.7462 99.621 98.8129 99.8725C98.8797 100.124 98.8962 100.386 98.8617 100.643C98.7857 101.161 98.5103 101.628 98.0947 101.945C97.6791 102.263 97.1558 102.405 96.6366 102.343C94.5827 102.053 92.4904 102.444 90.6804 103.457C88.8705 104.47 87.443 106.05 86.617 107.952C86.4389 108.341 86.1442 108.664 85.7739 108.878Z" fill="#F8F8FF"/>
<path d="M95.818 112.66C95.3599 112.916 94.8185 112.98 94.3132 112.838C93.8079 112.695 93.3799 112.358 93.1234 111.899C92.8669 111.441 92.8028 110.9 92.9456 110.395C93.088 109.889 93.4256 109.461 93.8838 109.205C94.3419 108.948 94.8833 108.884 95.3885 109.027C95.8939 109.169 96.3219 109.507 96.5784 109.965C96.8349 110.423 96.899 110.965 96.7562 111.47C96.6138 111.975 96.2762 112.403 95.818 112.66Z" fill="#F8F8FF"/>
</svg>
