<svg width="256" height="256" viewBox="0 0 256 256" fill="none" xmlns="http://www.w3.org/2000/svg">
<path fill-rule="evenodd" clip-rule="evenodd" d="M243.2 211.471C250.269 211.471 256 217.185 256 224.235C256 230.782 251.059 236.177 244.693 236.914L243.2 237H12.8C5.73082 237 0 231.285 0 224.235C0 217.689 4.94137 212.294 11.3073 211.556L12.8 211.471H243.2ZM217.6 20C231.096 20 242.153 30.4144 243.13 43.6241L243.2 45.5294V173.176C243.2 186.635 232.757 197.661 219.511 198.636L217.6 198.706H38.4C24.9042 198.706 13.8475 188.292 12.8702 175.082L12.8 173.176V45.5294C12.8 32.0708 23.2432 21.0446 36.4894 20.07L38.4 20H217.6ZM161.701 72.994C151.028 68.4749 139.522 66.1622 127.908 66.2022C116.295 66.2423 104.819 68.6352 94.1789 73.2282C83.5393 77.8207 73.9687 84.5169 66.0556 92.9008C64.4629 94.5884 61.8036 94.6652 60.116 93.0724C58.4284 91.4797 58.3516 88.8204 59.9444 87.1328C68.6459 77.9135 79.1641 70.5564 90.8485 65.5128C102.532 60.4696 115.131 57.8429 127.879 57.7988C140.627 57.7549 153.257 60.2929 164.977 65.2557C176.698 70.2188 187.269 77.5075 196.035 86.6661C197.64 88.3425 197.582 91.0022 195.905 92.6068C194.229 94.2114 191.569 94.1531 189.965 92.4767C181.992 84.147 172.372 77.5128 161.701 72.994ZM149.987 99.9842C143.046 97.0452 135.572 95.5412 128.018 95.5672C120.465 95.5933 112.999 97.1476 106.081 100.134C99.1615 103.121 92.939 107.474 87.7952 112.924C86.2024 114.612 83.5431 114.689 81.8555 113.096C80.1679 111.503 80.0911 108.844 81.6838 107.156C87.6164 100.871 94.7865 95.8567 102.75 92.4189L102.75 92.4188C110.714 88.9812 119.303 87.1939 127.99 87.1638C136.677 87.1339 145.276 88.8637 153.264 92.2461C161.251 95.6285 168.459 100.594 174.437 106.838C176.041 108.515 175.983 111.175 174.307 112.779C172.631 114.384 169.971 114.326 168.366 112.649C163.184 107.235 156.927 102.923 149.987 99.9842ZM141.208 127.568C137.067 125.814 132.605 124.917 128.097 124.932C123.586 124.948 119.127 125.875 115 127.656C110.871 129.439 107.16 132.036 104.093 135.286C102.5 136.973 99.8407 137.05 98.153 135.458C96.4654 133.865 96.3884 131.206 97.9811 129.518C101.837 125.433 106.496 122.174 111.669 119.941L111.669 119.941C116.843 117.708 122.426 116.549 128.067 116.529C133.709 116.51 139.297 117.632 144.485 119.83C149.673 122.027 154.357 125.252 158.241 129.311C159.846 130.987 159.787 133.647 158.111 135.252C156.434 136.856 153.775 136.798 152.17 135.121C149.081 131.893 145.35 129.322 141.208 127.568ZM127.664 162C132.322 162 136.098 158.269 136.098 153.667C136.098 149.064 132.322 145.333 127.664 145.333C123.006 145.333 119.229 149.064 119.229 153.667C119.229 158.269 123.006 162 127.664 162Z" fill="#FFFFFF"/>
</svg>
