<svg width="256" height="256" viewBox="0 0 256 256" fill="none" xmlns="http://www.w3.org/2000/svg">
<path fill-rule="evenodd" clip-rule="evenodd" d="M12.7667 112.208C14.6296 100.565 24.6742 92 36.4653 92H219.535C231.326 92 241.37 100.565 243.233 112.208L254.88 185H1.12L12.7667 112.208ZM0.16 191L0 192V224C0 232.837 7.16344 240 16 240H240C248.837 240 256 232.837 256 224V192L255.84 191H0.16ZM66 206H88V222H84V226H70V222H66V206ZM100 206H122V222H118V226H104V222H100V206ZM134 206H156V222H152V226H138V222H134V206ZM168 206H190V222H186V226H172V222H168V206Z" fill="#17347B"/>
<path d="M40 82V179C40 182.314 42.6863 185 46 185H50C53.3137 185 56 182.314 56 179V82L53 58V6.48516C53 4.89386 52.4195 3.28223 51.0764 2.4287C48.1701 0.581635 45.7422 1.40735 44.2199 2.66229C43.3059 3.41578 43 4.63214 43 5.81669V58L40 82Z" fill="#17347B"/>
<path d="M40 240H56V250C56 253.314 53.3137 256 50 256H46C42.6863 256 40 253.314 40 250V240Z" fill="#17347B"/>
<path d="M200 82V179C200 182.314 202.686 185 206 185H210C213.314 185 216 182.314 216 179V82L213 58V6.48516C213 4.89386 212.419 3.28223 211.076 2.4287C208.17 0.581635 205.742 1.40735 204.22 2.66229C203.306 3.41578 203 4.63214 203 5.81669V58L200 82Z" fill="#17347B"/>
<path d="M200 240H216V250C216 253.314 213.314 256 210 256H206C202.686 256 200 253.314 200 250V240Z" fill="#17347B"/>
</svg>
