<svg width="256" height="256" viewBox="0 0 256 256" fill="none" xmlns="http://www.w3.org/2000/svg">
<path fill-rule="evenodd" clip-rule="evenodd" d="M226.972 144.582L156.261 103.74C149.555 99.8795 139.675 99.5239 133.782 102.927L132.944 103.41V85.8082C132.958 85.6477 132.958 85.4862 132.944 85.3257L129.337 66.5556V6.53705C129.337 3.38753 126.01 1 121.718 1C117.425 1 113.971 3.38753 113.971 6.53705V66.5556L110.186 85.3257C110.173 85.4862 110.173 85.6477 110.186 85.8082V108.845C110.186 109.519 110.454 110.165 110.93 110.641C111.407 111.118 112.053 111.385 112.726 111.385C113.4 111.385 114.046 111.118 114.522 110.641C114.999 110.165 115.266 109.519 115.266 108.845V85.986L118.873 67.216C118.887 67.0554 118.887 66.8939 118.873 66.7334V6.79104C119.685 6.32537 120.604 6.08034 121.54 6.08034C122.476 6.08034 123.395 6.32537 124.207 6.79104V66.5556C123.712 66.9079 123.135 67.1266 122.53 67.1906C121.857 67.2444 121.232 67.5637 120.794 68.0782C120.356 68.5926 120.14 69.26 120.194 69.9337C120.248 70.6073 120.567 71.2319 121.081 71.6702C121.596 72.1084 122.263 72.3243 122.937 72.2704H123.343C123.949 72.1752 124.544 72.0221 125.121 71.8132L127.813 85.9606C127.686 86.875 125.274 88.5006 121.54 88.5006C121.1 88.5266 120.659 88.5266 120.219 88.5006C119.886 88.4655 119.548 88.4966 119.227 88.5919C118.905 88.6871 118.606 88.8448 118.345 89.0559C118.084 89.267 117.868 89.5274 117.708 89.8221C117.548 90.1169 117.447 90.4403 117.412 90.7738C117.377 91.1074 117.408 91.4445 117.504 91.7661C117.599 92.0877 117.757 92.3873 117.968 92.6479C118.179 92.9085 118.439 93.125 118.734 93.285C119.029 93.445 119.352 93.5454 119.686 93.5804C120.303 93.6198 120.922 93.6198 121.54 93.5804C123.708 93.5986 125.858 93.1841 127.864 92.3613V106.483L54.8159 148.519V129.063C54.8292 128.903 54.8292 128.741 54.8159 128.581L51.2092 109.811V49.8174C51.1838 46.7187 47.8565 44.1788 43.437 44.1788C39.0175 44.1788 35.8172 46.5663 35.8172 49.7412V109.811L32.2105 128.581C32.1967 128.741 32.1967 128.903 32.2105 129.063V155.225C32.2105 155.898 32.4781 156.544 32.9544 157.021C33.4308 157.497 34.0768 157.764 34.7504 157.764C35.4241 157.764 36.0701 157.497 36.5464 157.021C37.0228 156.544 37.2904 155.898 37.2904 155.225V129.292L40.8971 110.522C40.9109 110.361 40.9109 110.2 40.8971 110.039V50.046C41.6536 49.5604 42.5383 49.3126 43.437 49.3349C44.378 49.2915 45.3095 49.5399 46.1039 50.046V109.811C45.606 110.157 45.0301 110.375 44.4276 110.446C44.094 110.472 43.769 110.564 43.4711 110.717C43.1731 110.869 42.9081 111.078 42.6911 111.333C42.4741 111.588 42.3094 111.883 42.2064 112.201C42.1034 112.52 42.0642 112.855 42.0908 113.189C42.1175 113.522 42.2096 113.847 42.3619 114.145C42.5142 114.443 42.7237 114.708 42.9784 114.925C43.2332 115.142 43.5281 115.307 43.8465 115.41C44.1649 115.513 44.5004 115.552 44.834 115.525H45.2404C45.8387 115.433 46.4259 115.28 46.9929 115.068L49.7106 129.216C49.5582 130.13 47.1707 131.756 43.437 131.756C42.9971 131.782 42.5561 131.782 42.1162 131.756C41.7843 131.72 41.4487 131.751 41.1286 131.846C40.8086 131.94 40.5102 132.097 40.2508 132.307C39.9913 132.517 39.7757 132.776 39.6164 133.069C39.4571 133.362 39.3572 133.684 39.3223 134.016C39.2871 134.348 39.3177 134.684 39.4123 135.004C39.5068 135.324 39.6636 135.622 39.8735 135.882C40.0835 136.141 40.3425 136.357 40.6358 136.516C40.9291 136.675 41.2509 136.775 41.5829 136.81C42.2003 136.849 42.8196 136.849 43.437 136.81C45.5955 136.838 47.7376 136.432 49.736 135.616V151.567L26.7243 164.749C25.3574 165.404 24.1952 166.42 23.3627 167.686C22.5302 168.953 22.0591 170.423 22 171.937V202.416C22.1678 204.281 22.8244 206.068 23.9036 207.598C24.9828 209.127 26.4464 210.345 28.1466 211.128L98.8583 251.843C102.697 253.939 107.006 255.023 111.38 254.993C114.845 255.085 118.275 254.28 121.337 252.656L228.395 190.834C229.761 190.179 230.924 189.164 231.756 187.897C232.589 186.631 233.06 185.161 233.119 183.646V153.396C232.968 151.513 232.32 149.705 231.24 148.156C230.159 146.607 228.687 145.374 226.972 144.582ZM225.855 186.415L118.797 248.262C114.479 250.802 106.503 250.37 101.398 247.424L30.6866 206.734C28.426 205.439 27.0799 203.813 27.0799 202.416V171.937C27.0799 170.591 28.426 169.601 29.2642 169.143L136.322 107.321C140.64 104.782 148.615 105.213 153.721 108.16L224.432 148.976C226.693 150.272 228.039 151.897 228.039 153.294C228.039 154.691 226.667 155.631 225.855 156.088L118.797 217.91C114.479 220.45 106.503 220.018 101.398 217.072L33.1249 177.652C32.5388 177.315 31.843 177.225 31.1904 177.401C30.5378 177.578 29.982 178.006 29.6452 178.592C29.3084 179.178 29.2182 179.874 29.3944 180.526C29.5706 181.179 29.9989 181.735 30.585 182.072L98.8583 221.466C102.689 223.586 107.002 224.679 111.38 224.641C114.845 224.733 118.275 223.928 121.337 222.304L228.014 160.685V183.545C228.039 184.992 226.617 185.983 225.855 186.415ZM158.901 215.549L161.492 214.05V216.107L165.683 213.694V211.637L168.274 210.138V202.163L158.901 207.573V215.549ZM175.234 206.124L172.644 207.623V199.622L182.016 194.237V202.213L179.425 203.711V205.769L175.234 208.182V206.124ZM186.385 199.674L188.975 198.201V200.259L193.141 197.846V195.788L195.732 194.29V186.289L186.385 191.699V199.674ZM202.69 190.25L200.1 191.749V183.773L209.472 178.363V186.339L206.881 187.837V189.895L202.69 192.307V190.25ZM213.84 183.824L216.431 182.325V184.383L220.622 181.97V179.912L223.212 178.414V170.438L213.84 175.848V183.824ZM126.245 228.546C126.881 227.451 127.766 226.522 128.83 225.835C130.836 224.667 132.487 225.607 132.487 227.918C132.415 229.185 132.047 230.417 131.412 231.516C130.776 232.614 129.892 233.548 128.83 234.243C126.823 235.411 125.172 234.471 125.172 232.134C125.242 230.87 125.609 229.641 126.245 228.546Z" fill="#F8F8FF"/>
</svg>
