<svg width="256" height="256" viewBox="0 0 256 256" fill="none" xmlns="http://www.w3.org/2000/svg">
<path d="M203.512 118.665H200.512V121.64V121.665V124.64V129.791V132.693V132.791V135.693H203.512H213.088C217.334 135.693 220.863 136.349 223.752 137.562L223.776 137.572L223.8 137.582C226.652 138.723 228.752 140.443 230.227 142.733L230.234 142.743L230.24 142.753C231.672 144.938 232.506 147.922 232.506 151.918C232.506 155.962 231.749 159.065 230.43 161.394L230.42 161.411L230.411 161.428C229.118 163.778 227.288 165.516 224.85 166.698C222.394 167.864 219.328 168.507 215.555 168.507C211.82 168.507 208.72 167.829 206.168 166.579C203.659 165.279 201.777 163.516 200.44 161.281C199.153 159.051 198.459 156.374 198.459 153.152V150.152H195.459H182.037H179.037V153.152C179.037 158.22 179.979 162.853 181.938 166.987L181.941 166.994L181.944 167.001C183.875 171.024 186.57 174.448 190.012 177.245L190.023 177.254L190.034 177.263C193.429 179.968 197.307 182.019 201.641 183.428L201.651 183.432C206.032 184.84 210.673 185.534 215.555 185.534C220.628 185.534 225.378 184.817 229.78 183.349C234.197 181.877 238.086 179.677 241.406 176.733C244.793 173.775 247.396 170.171 249.211 165.96C251.096 161.698 252.001 156.9 252.001 151.628C252.001 148.148 251.412 144.689 250.255 141.261C249.085 137.6 247.044 134.295 244.206 131.347C242.409 129.449 240.24 127.829 237.734 126.465C239.271 125.411 240.669 124.25 241.918 122.979C244.766 120.128 246.917 116.999 248.296 113.585C249.666 110.263 250.404 107.022 250.404 103.891C250.404 96.9188 248.995 90.8581 245.985 85.876C243.013 80.9067 238.832 77.1668 233.517 74.6945C228.256 72.1989 222.218 71 215.483 71C208.591 71 202.388 72.3912 196.957 75.2663L196.957 75.2663L196.946 75.2721C191.628 78.1157 187.422 81.9788 184.416 86.8651C181.404 91.7582 179.908 97.1912 179.908 103.092V106.092H182.908H196.329H199.329V103.092C199.329 99.869 200.023 97.2267 201.298 95.0559C202.649 92.8381 204.475 91.1484 206.83 89.9508L206.839 89.9464L206.848 89.9419C209.262 88.6943 212.115 88.0276 215.483 88.0276C219.328 88.0276 222.249 88.6791 224.405 89.7955C226.539 90.9008 228.113 92.5083 229.186 94.6935C230.284 96.9281 230.91 99.8544 230.91 103.6C230.91 106.566 230.247 109.148 228.973 111.418L228.968 111.426L228.964 111.434C227.788 113.557 225.962 115.314 223.33 116.673C220.832 117.94 217.47 118.665 213.088 118.665H203.512Z" fill="#FFFFFF" stroke="#FFFFFF" stroke-width="6"/>
<path d="M159.162 170.056V167.056H156.162H110.047L133.7 141.401L133.705 141.396C136.463 138.392 139.052 135.334 141.472 132.224C143.97 129.075 146.156 125.861 148.023 122.584C149.953 119.281 151.468 115.949 152.555 112.588C153.709 109.121 154.301 105.662 154.301 102.222C154.301 96.1031 152.911 90.6187 150.028 85.8781C147.197 81.0948 143.121 77.4238 137.904 74.8661C132.656 72.2447 126.469 71 119.451 71C111.572 71 104.715 72.5502 99.0288 75.82C93.4371 78.9872 89.1499 83.3098 86.2566 88.7749C83.4008 94.1691 81.9902 100.097 81.9902 106.502V109.502H84.9902H98.4119H101.412V106.502C101.412 102.665 102.116 99.3957 103.441 96.6226C104.729 93.9259 106.631 91.8667 109.2 90.3817L109.206 90.378L109.212 90.3743C111.782 88.8718 115.142 88.0276 119.451 88.0276C122.932 88.0276 125.7 88.7763 127.893 90.1233C130.176 91.5249 131.862 93.3744 133.01 95.7098L133.024 95.7374L133.038 95.7648C134.247 98.1016 134.879 100.765 134.879 103.818C134.879 106.216 134.46 108.578 133.609 110.918L133.603 110.933L133.598 110.948C132.805 113.202 131.326 115.923 129.049 119.13L129.044 119.137C126.817 122.292 123.613 126.209 119.396 130.906C119.396 130.906 119.396 130.906 119.396 130.906L84.7899 169.43L84.0216 170.285V171.434V181.083V184.083H87.0216H156.162H159.162V181.083V170.056Z" fill="#FFFFFF" stroke="#FFFFFF" stroke-width="6"/>
<path d="M50.4828 74.8701V71.8701H47.4828H45.3788H44.8307L44.3179 72.064L5.93908 86.5739L4 87.307V89.3801V101.496V105.783L8.02766 104.314L31.0611 95.9161V181.083V184.083H34.0611H47.4828H50.4828V181.083V74.8701Z" fill="#FFFFFF" stroke="#FFFFFF" stroke-width="6"/>
</svg>
