<svg width="256" height="256" viewBox="0 0 256 256" fill="none" xmlns="http://www.w3.org/2000/svg">
<path d="M203.512 118.57H200.416V121.544V121.665V124.64V129.791V132.693V132.886V135.788H203.512H213.088C217.325 135.788 220.841 136.443 223.715 137.65L223.739 137.661L223.764 137.671C226.6 138.805 228.684 140.512 230.147 142.785L230.154 142.795L230.16 142.805C231.579 144.971 232.411 147.935 232.411 151.918C232.411 155.95 231.656 159.036 230.346 161.347L230.337 161.364L230.327 161.382C229.044 163.714 227.229 165.439 224.809 166.612C222.369 167.77 219.317 168.411 215.555 168.411C211.833 168.411 208.748 167.736 206.211 166.494C203.718 165.201 201.849 163.451 200.522 161.232C199.245 159.019 198.554 156.359 198.554 153.152V150.056H195.459H182.037H178.942V153.152C178.942 158.231 179.886 162.879 181.851 167.028L181.855 167.035L181.858 167.042C183.795 171.078 186.499 174.513 189.952 177.319L189.963 177.328L189.975 177.338C193.379 180.05 197.268 182.106 201.611 183.519L201.621 183.523C206.013 184.934 210.663 185.63 215.555 185.63C220.637 185.63 225.397 184.911 229.811 183.44C234.239 181.964 238.139 179.757 241.469 176.805C244.866 173.837 247.478 170.222 249.298 165.999C251.19 161.722 252.096 156.91 252.096 151.628C252.096 148.137 251.506 144.668 250.345 141.231C249.171 137.556 247.121 134.238 244.275 131.281C242.503 129.41 240.372 127.808 237.915 126.456C239.408 125.422 240.767 124.286 241.986 123.046C244.842 120.187 247 117.048 248.384 113.621C249.757 110.29 250.5 107.037 250.5 103.891C250.5 96.9065 249.088 90.8279 246.068 85.8274C243.085 80.8412 238.89 77.0883 233.558 74.608C228.281 72.1054 222.229 70.9045 215.483 70.9045C208.578 70.9045 202.359 72.2985 196.912 75.182L196.912 75.1819L196.901 75.1879C191.569 78.0389 187.351 81.9133 184.334 86.8151C181.313 91.7238 179.812 97.1743 179.812 103.092V106.188H182.908H196.329H199.425V103.092C199.425 99.8834 200.116 97.2586 201.38 95.1048C202.721 92.9027 204.534 91.2254 206.874 90.0359L206.883 90.0313L206.892 90.0267C209.291 88.7871 212.127 88.123 215.483 88.123C219.318 88.123 222.223 88.773 224.361 89.8803C226.477 90.9761 228.036 92.5686 229.1 94.7356L231.879 93.3708L229.1 94.7356C230.19 96.9536 230.815 99.8645 230.815 103.6C230.815 106.551 230.155 109.117 228.889 111.371L228.885 111.379L228.88 111.388C227.715 113.493 225.903 115.237 223.286 116.588C220.805 117.846 217.46 118.57 213.088 118.57H203.512Z" stroke="#F8F8FF" stroke-width="6.19091"/>
<path d="M159.257 170.056V166.96H156.162H110.265L133.77 141.466L133.775 141.461C136.535 138.454 139.126 135.395 141.546 132.284C144.048 129.13 146.236 125.913 148.105 122.632C150.038 119.324 151.557 115.986 152.646 112.619C153.803 109.143 154.396 105.673 154.396 102.222C154.396 96.0886 153.003 90.5867 150.11 85.8292C147.269 81.0291 143.178 77.3458 137.946 74.7806C132.682 72.1512 126.48 70.9045 119.451 70.9045C111.56 70.9045 104.686 72.4571 98.9815 75.7371C93.375 78.9128 89.0745 83.2482 86.1722 88.7303C83.3087 94.1391 81.8948 100.082 81.8948 106.502V109.598H84.9902H98.4119H101.507V106.502C101.507 102.677 102.209 99.422 103.527 96.6637C104.806 93.9844 106.696 91.9396 109.248 90.4643L109.254 90.4605L109.261 90.4568C111.812 88.9649 115.154 88.123 119.451 88.123C122.918 88.123 125.668 88.8686 127.843 90.2047C130.111 91.597 131.785 93.433 132.924 95.7519L132.938 95.7804L132.953 95.8086C134.154 98.1306 134.784 100.779 134.784 103.818C134.784 106.204 134.366 108.555 133.519 110.886L133.513 110.901L133.508 110.916C132.719 113.159 131.245 115.872 128.971 119.075L128.966 119.082C126.742 122.233 123.541 126.147 119.325 130.842L84.7189 169.366L83.9262 170.248V171.434V181.083V184.179H87.0216H156.162H159.257V181.083V170.056Z" stroke="#F8F8FF" stroke-width="6.19091"/>
<path d="M50.5782 74.8701V71.7747H47.4828H45.3788H44.8132L44.2841 71.9747L5.90532 86.4846L3.90454 87.2411V89.3801V101.496V105.919L8.06035 104.404L30.9656 96.0525V181.083V184.178H34.0611H47.4828H50.5782V181.083V74.8701Z" stroke="#F8F8FF" stroke-width="6.19091"/>
</svg>
