<svg width="256" height="256" viewBox="0 0 256 256" fill="none" xmlns="http://www.w3.org/2000/svg">
<path d="M107.603 21.4605C104.439 27.0863 101.274 54.8639 96.3514 131.516C87.9127 256.339 84.045 259.855 75.6062 150.855C68.9255 67.522 66.8159 51.3477 62.2449 48.5348C54.861 43.9638 51.6964 55.9187 45.0158 114.287C41.4996 148.042 37.6319 177.577 36.577 180.039C33.0609 190.235 28.1383 179.335 22.5125 148.042C19.348 129.758 15.4802 112.88 13.7221 110.419C9.50276 103.387 -0.342438 109.012 0.00917624 118.154L0.712404 126.242L2.11886 118.154C5.28339 102.683 11.9641 112.88 17.5899 140.658C25.677 182.5 27.4351 187.774 33.0609 187.774C40.4448 187.774 43.2577 174.413 48.8835 115.693C53.4545 68.2252 55.9158 54.1606 59.432 54.1606C62.9481 54.1606 65.4094 72.4446 71.7385 153.316C77.3643 226.452 79.1224 237 85.803 237C92.1321 237 93.8901 223.99 99.8676 138.196C106.197 48.8864 108.658 26.0315 112.174 26.0315C115.339 26.0315 117.448 39.7445 124.129 105.145C129.403 155.777 131.864 166.677 137.139 166.677C143.468 166.677 146.984 152.261 152.61 109.364C158.236 62.951 160.345 53.1058 164.916 55.9187C168.081 57.6768 170.542 75.6091 175.465 133.274C180.036 181.445 184.607 202.893 190.584 200.784C196.21 199.026 198.671 186.719 203.242 138.196C208.868 80.1801 213.791 54.5123 218.01 62.2478C219.768 65.4123 223.636 85.4543 226.8 107.254C232.426 148.745 236.294 163.161 241.92 163.161C243.678 163.161 246.139 160.348 247.546 156.48C250.71 145.932 256.336 92.4866 255.984 75.2575C255.633 66.4671 253.523 80.5317 250.71 106.551C248.249 132.571 244.733 155.074 242.975 156.832C239.107 160.7 234.536 141.361 228.207 92.135C223.636 59.7865 217.658 48.1832 210.978 60.4897C208.868 64.3575 205 90.7285 201.836 119.561C195.507 180.742 193.397 194.806 189.529 194.806C186.365 194.806 183.552 178.984 178.981 128C174.058 71.3897 171.948 59.0832 166.674 51.6993C162.103 45.7219 161.752 46.0735 157.884 55.9187C155.774 61.5445 151.555 84.0479 149.094 105.848C146.281 127.296 143.116 149.448 141.71 154.722C137.49 171.6 133.271 155.426 127.645 99.1673C124.481 69.6317 120.613 39.3929 118.855 32.009C115.69 19.7025 111.119 15.4831 107.603 21.4605Z" fill="#F8F8FF"/>
</svg>
