<svg width="256" height="256" viewBox="0 0 256 256" fill="none" xmlns="http://www.w3.org/2000/svg">
<path d="M172.118 169.162C171.639 168.886 171.096 168.74 170.543 168.74C169.991 168.74 169.448 168.886 168.969 169.162L149.539 180.401C148.88 180.816 148.335 181.389 147.955 182.069C147.575 182.749 147.371 183.513 147.363 184.292V192.714C147.355 193.318 147.51 193.912 147.812 194.435C148.114 194.957 148.551 195.389 149.078 195.684C149.542 195.933 150.061 196.065 150.588 196.068C151.162 196.063 151.726 195.913 152.227 195.632L171.657 184.394C172.319 183.983 172.866 183.41 173.247 182.729C173.627 182.049 173.829 181.283 173.833 180.503V172.132C173.844 171.528 173.689 170.932 173.387 170.409C173.085 169.886 172.646 169.455 172.118 169.162ZM168.585 180.196L152.483 189.488V184.624L168.585 175.332V180.196Z" fill="#F8F8FF"/>
<path d="M202.658 151.652C202.184 151.375 201.645 151.229 201.096 151.229C200.548 151.229 200.009 151.375 199.535 151.652L180.104 162.89C179.408 163.322 178.839 163.931 178.457 164.656C178.074 165.38 177.892 166.194 177.928 167.012V175.434C177.909 176.018 178.046 176.596 178.325 177.11C178.604 177.623 179.015 178.052 179.516 178.353C179.963 178.625 180.477 178.766 181 178.762C181.574 178.758 182.138 178.608 182.639 178.327L202.095 167.089C202.748 166.663 203.286 166.083 203.661 165.4C204.036 164.717 204.237 163.951 204.245 163.172V154.698C204.28 154.095 204.151 153.493 203.871 152.956C203.592 152.42 203.173 151.969 202.658 151.652ZM199.125 162.711L183.048 172.132V167.268L199.125 157.975V162.711Z" fill="#F8F8FF"/>
<path d="M252.272 152.959V101.759C252.284 101.605 252.284 101.451 252.272 101.298C252.273 99.8672 251.894 98.4617 251.174 97.2249C250.455 95.9882 249.42 94.9644 248.176 94.258L135.792 29.9764C133.715 28.7863 131.363 28.1602 128.969 28.1602C126.576 28.1602 124.224 28.7863 122.147 29.9764L9.17429 95.3332C7.93211 96.0442 6.90229 97.0739 6.19122 98.3161C5.48015 99.5582 5.11362 100.968 5.12949 102.399C5.11699 102.527 5.11699 102.655 5.12949 102.783C5.12109 102.842 5.12109 102.903 5.12949 102.962V155.212C5.14121 155.457 5.1931 155.699 5.28309 155.928C5.27019 156.048 5.27019 156.168 5.28309 156.287C5.51223 157.421 5.98292 158.493 6.66319 159.43C7.34346 160.366 8.21736 161.145 9.22549 161.714L121.635 225.893C123.714 227.076 126.065 227.698 128.457 227.698C130.85 227.698 133.201 227.076 135.28 225.893L248.253 160.69C249.593 159.922 250.684 158.785 251.396 157.414C252.109 156.043 252.413 154.497 252.272 152.959ZM11.6319 99.634L124.707 34.4308C126.012 33.6951 127.484 33.3085 128.982 33.3085C130.48 33.3085 131.953 33.6951 133.257 34.4308L245.667 98.7124C246.13 98.9613 246.517 99.3306 246.787 99.7811C247.058 100.232 247.201 100.747 247.203 101.272C247.213 101.4 247.213 101.529 247.203 101.656V101.81C247.13 102.243 246.961 102.653 246.708 103.012C246.456 103.371 246.126 103.669 245.744 103.884L132.72 169.112C131.415 169.848 129.943 170.235 128.445 170.235C126.947 170.235 125.474 169.848 124.169 169.112L11.7599 104.856C11.3202 104.589 10.9566 104.213 10.7044 103.765C10.4521 103.317 10.3196 102.811 10.3196 102.296C10.3196 101.782 10.4521 101.276 10.7044 100.828C10.9566 100.379 11.3202 100.003 11.7599 99.7364L11.6319 99.634ZM245.59 156.312L132.72 221.516C131.415 222.251 129.943 222.638 128.445 222.638C126.947 222.638 125.474 222.251 124.169 221.516L11.7599 157.26C11.3875 157.051 11.0643 156.765 10.8125 156.42C10.5607 156.076 10.3861 155.681 10.3007 155.263V109.9L121.635 173.567C123.714 174.75 126.065 175.371 128.457 175.371C130.85 175.371 133.201 174.75 135.28 173.567L247.152 109.004V151.039C246.955 151.594 246.955 152.199 247.152 152.754C247.164 152.959 247.164 153.164 247.152 153.368V153.983C247.121 154.462 246.971 154.925 246.717 155.332C246.462 155.739 246.11 156.076 245.693 156.312H245.59Z" fill="#F8F8FF"/>
<path d="M128.597 180.274C127.918 180.274 127.267 180.544 126.787 181.024C126.307 181.504 126.037 182.155 126.037 182.834V213.734C126.037 214.413 126.307 215.064 126.787 215.544C127.267 216.024 127.918 216.294 128.597 216.294C129.276 216.294 129.927 216.024 130.407 215.544C130.887 215.064 131.157 214.413 131.157 213.734V182.834C131.157 182.155 130.887 181.504 130.407 181.024C129.927 180.544 129.276 180.274 128.597 180.274Z" fill="#F8F8FF"/>
<path d="M30.4724 108.132L123.477 160.715C125.21 161.697 127.169 162.209 129.16 162.199C131.17 162.197 133.145 161.677 134.895 160.689L227.055 107.595C228.125 106.987 229.014 106.106 229.633 105.043C230.252 103.979 230.578 102.771 230.578 101.54C230.578 100.31 230.252 99.1012 229.633 98.0376C229.014 96.9741 228.125 96.0936 227.055 95.4858L134.076 42.8266C132.335 41.8393 130.368 41.3203 128.367 41.3203C126.366 41.3203 124.399 41.8393 122.658 42.8266L30.498 95.921C29.4257 96.5279 28.5351 97.4104 27.9185 98.4772C27.3019 99.5439 26.9816 100.756 26.9908 101.988C26.9569 103.232 27.2631 104.462 27.8767 105.545C28.4902 106.627 29.3878 107.522 30.4724 108.132ZM33.0324 100.452L125.192 47.3834C126.161 46.836 127.254 46.5484 128.367 46.5484C129.479 46.5484 130.573 46.836 131.541 47.3834L224.444 99.9402C224.735 100.096 224.977 100.329 225.144 100.613C225.311 100.898 225.397 101.223 225.391 101.553C225.397 101.883 225.311 102.208 225.144 102.493C224.977 102.777 224.735 103.01 224.444 103.166L132.284 156.235C131.315 156.782 130.222 157.07 129.109 157.07C127.997 157.07 126.903 156.782 125.935 156.235L32.9812 103.601C32.6931 103.442 32.453 103.208 32.2858 102.924C32.1186 102.641 32.0304 102.317 32.0304 101.988C32.0304 101.659 32.1186 101.336 32.2858 101.052C32.453 100.768 32.6931 100.535 32.9812 100.375L33.0324 100.452Z" fill="#F8F8FF"/>
<path d="M231.817 136.881C230.917 136.411 229.908 136.191 228.895 136.245C227.881 136.299 226.901 136.625 226.057 137.188C225.751 137.348 225.48 137.568 225.262 137.836C225.043 138.103 224.881 138.412 224.785 138.743C224.689 139.075 224.66 139.422 224.702 139.765C224.744 140.108 224.854 140.439 225.027 140.738C225.2 141.037 225.431 141.297 225.707 141.505C225.984 141.712 226.299 141.861 226.634 141.943C226.97 142.025 227.318 142.039 227.659 141.983C228 141.927 228.325 141.802 228.617 141.617C228.924 141.438 229.129 141.387 229.206 141.335C229.252 141.563 229.252 141.798 229.206 142.027C229.109 143.146 228.767 144.231 228.205 145.204C227.644 146.177 226.875 147.015 225.954 147.659L225.34 147.966C225.313 147.736 225.313 147.504 225.34 147.275C225.34 146.596 225.07 145.944 224.59 145.464C224.11 144.984 223.459 144.715 222.78 144.715C222.101 144.715 221.45 144.984 220.97 145.464C220.49 145.944 220.22 146.596 220.22 147.275C220.161 148.277 220.366 149.278 220.815 150.177C221.265 151.075 221.942 151.84 222.78 152.395C223.558 152.838 224.444 153.06 225.34 153.035C226.515 153.004 227.662 152.669 228.668 152.062C230.381 150.983 231.805 149.503 232.817 147.75C233.83 145.997 234.4 144.024 234.479 142.001C234.538 140.987 234.322 139.975 233.854 139.074C233.385 138.173 232.681 137.415 231.817 136.881Z" fill="#F8F8FF"/>
<path d="M51.7973 151.96C51.1184 151.96 50.4672 152.23 49.9871 152.71C49.507 153.19 49.2373 153.841 49.2373 154.52V167.627C49.2373 168.306 49.507 168.957 49.9871 169.437C50.4672 169.917 51.1184 170.187 51.7973 170.187C52.4763 170.187 53.1274 169.917 53.6075 169.437C54.0876 168.957 54.3573 168.306 54.3573 167.627V154.52C54.3573 153.841 54.0876 153.19 53.6075 152.71C53.1274 152.23 52.4763 151.96 51.7973 151.96Z" fill="#F8F8FF"/>
<path d="M60.6547 157.08C59.9758 157.08 59.3246 157.35 58.8445 157.83C58.3644 158.31 58.0947 158.961 58.0947 159.64V172.747C58.0947 173.426 58.3644 174.077 58.8445 174.557C59.3246 175.038 59.9758 175.307 60.6547 175.307C61.3337 175.307 61.9848 175.038 62.4649 174.557C62.945 174.077 63.2147 173.426 63.2147 172.747V159.64C63.2147 158.961 62.945 158.31 62.4649 157.83C61.9848 157.35 61.3337 157.08 60.6547 157.08Z" fill="#F8F8FF"/>
<path d="M69.5385 162.225C68.8596 162.225 68.2084 162.494 67.7283 162.974C67.2482 163.455 66.9785 164.106 66.9785 164.785V177.866C66.9785 178.545 67.2482 179.196 67.7283 179.676C68.2084 180.156 68.8596 180.426 69.5385 180.426C70.2175 180.426 70.8686 180.156 71.3487 179.676C71.8288 179.196 72.0985 178.545 72.0985 177.866V164.785C72.0985 164.106 71.8288 163.455 71.3487 162.974C70.8686 162.494 70.2175 162.225 69.5385 162.225Z" fill="#F8F8FF"/>
<path d="M78.4213 167.345C77.7424 167.345 77.0912 167.614 76.6111 168.095C76.131 168.575 75.8613 169.226 75.8613 169.905V182.986C75.8613 183.665 76.131 184.316 76.6111 184.797C77.0912 185.277 77.7424 185.546 78.4213 185.546C79.1003 185.546 79.7514 185.277 80.2315 184.797C80.7116 184.316 80.9813 183.665 80.9813 182.986V169.905C80.9813 169.226 80.7116 168.575 80.2315 168.095C79.7514 167.614 79.1003 167.345 78.4213 167.345Z" fill="#F8F8FF"/>
</svg>
