<svg width="256" height="256" viewBox="0 0 256 256" fill="none" xmlns="http://www.w3.org/2000/svg">
<path d="M159.998 1.17764C158.154 2.77786 158.154 5.22819 159.898 6.7784C160.944 7.67853 162.04 7.92856 165.876 8.1786C174.494 8.72867 181.219 10.5289 188.94 14.2794C208.517 23.7307 221.319 42.9834 222.864 65.2364C223.163 69.287 223.412 70.3871 224.308 71.4373C225.853 73.2375 228.293 73.1875 229.937 71.2873C231.133 69.8871 231.133 69.637 230.834 64.8364C228.642 31.3818 203.685 4.67812 170.658 0.527546C163.933 -0.32257 161.542 -0.17255 159.998 1.17764Z" fill="#FFFFFF"/>
<path d="M160.395 26.7804C159.001 28.5807 159.001 30.1309 160.445 31.8311C161.442 32.9813 162.089 33.1813 166.124 33.5814C178.229 34.6815 188.341 41.4324 193.871 52.0339C196.063 56.2345 197.159 60.085 197.657 65.4357C198.005 69.2363 198.205 69.8863 199.35 70.8865C201.044 72.3367 202.588 72.3367 204.382 70.9365L205.777 69.8363L205.478 64.8357C204.98 54.7343 200.745 45.533 193.223 37.982C185.701 30.4309 176.535 26.1803 166.473 25.6803L161.491 25.3802L160.395 26.7804Z" fill="#FFFFFF"/>
<path d="M160.944 49.5337C157.507 50.9339 158.553 57.0347 162.24 57.0347C168.516 57.0347 174.245 62.8355 174.245 69.1864C174.245 71.9868 178.629 73.637 180.721 71.5367C182.116 70.1365 182.365 68.4863 181.717 65.1858C180.123 57.2848 174.195 51.2839 166.374 49.5837C163.336 48.9336 162.439 48.9336 160.944 49.5337Z" fill="#FFFFFF"/>
<path d="M56.0347 57.1353C48.6621 65.8865 43.033 77.7882 40.1438 90.6399C39.1475 95.1905 38.998 97.0908 38.998 106.792C38.998 116.443 39.1475 118.494 40.1438 123.244C45.6732 148.998 62.1619 170.801 85.6246 183.203C114.019 198.255 147.195 195.754 172.452 176.702C174.843 174.951 176.736 173.351 176.736 173.151C176.736 172.951 150.085 146.198 117.506 113.643L58.2763 54.535L56.0347 57.1353Z" fill="#FFFFFF"/>
<path d="M150.981 71.0369C145.003 74.6874 147.195 83.6387 154.069 83.6387C160.894 83.6387 163.136 75.0375 157.357 71.187C155.265 69.7868 153.073 69.7368 150.981 71.0369Z" fill="#FFFFFF"/>
<path d="M130.208 94.4408L116.857 104.692L121.889 109.693C124.629 112.493 126.97 114.644 127.069 114.544C127.219 114.394 131.752 108.343 137.232 101.042L147.145 87.7899L145.351 86.0396L143.558 84.2394L130.208 94.4408Z" fill="#FFFFFF"/>
<path d="M54.8889 174.051C50.8041 177.052 48.7617 181.252 48.7119 186.853C48.7119 189.853 48.961 190.904 50.2562 193.454C55.935 204.905 72.5233 204.905 78.0029 193.504C78.6007 192.254 79.0989 190.804 79.0989 190.253C79.0989 189.603 77.2557 188.053 72.9717 185.203C69.6341 182.952 64.7024 179.202 62.0622 176.852C59.4221 174.501 57.1804 172.551 57.0808 172.551C56.9811 172.551 55.9849 173.201 54.8889 174.051Z" fill="#FFFFFF"/>
<path d="M39.9444 232.159L25 255.812L44.5772 255.962C55.3371 256.013 73.0213 256.013 83.8809 255.962L103.558 255.812L88.8126 232.559C80.643 219.758 73.8682 209.106 73.6191 208.906C73.4198 208.656 72.0748 208.856 70.5804 209.256C67.2926 210.256 61.0658 210.306 57.8777 209.306C56.5327 208.906 55.3371 208.556 55.1877 208.556C55.0382 208.556 48.1638 219.207 39.9444 232.159Z" fill="#FFFFFF"/>
</svg>
