<svg width="256" height="256" viewBox="0 0 256 256" fill="none" xmlns="http://www.w3.org/2000/svg">
<path d="M21.3284 26.5965L21.329 26.6061L21.3295 26.6158L21.631 32.4462L125.159 32.907C125.16 32.907 125.162 32.907 125.163 32.907C163.945 32.9863 190.806 32.9466 208.145 32.7289C216.821 32.6199 223.073 32.4668 227.229 32.2644C229.316 32.1627 230.811 32.0514 231.798 31.9359C231.868 31.9276 231.935 31.9194 231.998 31.9115C232.121 31.5989 232.252 31.172 232.37 30.6227C232.664 29.2593 232.812 27.4839 232.776 25.5991C232.74 23.7201 232.525 21.8808 232.17 20.3995C231.993 19.6602 231.795 19.071 231.602 18.6375C231.517 18.4477 231.444 18.3128 231.39 18.2213C231.372 18.2155 231.353 18.2094 231.332 18.2031C230.91 18.0735 230.141 17.9095 228.784 17.7488C226.08 17.4285 221.614 17.1827 214.151 17.0043C199.274 16.6486 172.994 16.5691 126.262 16.5691C81.8353 16.5691 55.5059 16.6486 40.085 16.9649C32.3572 17.1234 27.4646 17.34 24.4333 17.6242C23.2346 17.7366 22.4074 17.8527 21.8519 17.9597C21.7193 18.439 21.589 19.0914 21.484 19.9151C21.259 21.6809 21.1798 23.9955 21.3284 26.5965Z" stroke="#F8F8FF" stroke-width="7.13793"/>
<path d="M17.3937 110.844L17.423 110.854L17.4521 110.866C27.4332 114.674 37.9554 109.117 40.6319 98.4348C41.3165 95.6121 43.7476 82.6091 46.0367 69.85C47.1756 63.5019 48.2688 57.2737 49.0766 52.4986C49.4455 50.3179 49.7532 48.4499 49.9782 47.0159C49.5603 46.9771 49.0939 46.9408 48.58 46.9078C45.6247 46.7182 41.5831 46.6677 37.4026 46.746C33.2279 46.8242 29.0021 47.0293 25.6863 47.3362C24.0208 47.4903 22.6477 47.6645 21.6496 47.8478C21.3493 47.903 21.1059 47.9548 20.9142 48.0012C20.7515 48.2757 20.5472 48.6572 20.3033 49.159C19.7144 50.3706 19.0056 52.0528 18.2152 54.1108C16.6399 58.2125 14.8269 63.5789 13.1064 69.1535C11.387 74.7242 9.77657 80.4488 8.6001 85.2594C7.38425 90.2311 6.74182 93.8052 6.74182 95.3242C6.74182 101.821 11.416 108.682 17.3937 110.844ZM21.1572 47.6276C21.1606 47.6235 21.1623 47.6213 21.1623 47.6213C21.1623 47.6212 21.1606 47.6233 21.1572 47.6276ZM20.4847 48.1229C20.4623 48.131 20.4523 48.1355 20.4528 48.1357C20.4534 48.1358 20.4646 48.1318 20.4847 48.1229Z" stroke="#F8F8FF" stroke-width="7.13793"/>
<path d="M83.7508 110.136L83.7707 110.125L83.7909 110.114C85.8522 108.993 87.2537 107.965 88.3334 106.725C89.4003 105.499 90.3185 103.873 91.1113 101.338C92.7616 96.0607 93.6644 87.6034 94.6227 72.4343C95.0183 65.0755 95.3336 58.2523 95.4908 53.1799C95.5662 50.7491 95.6043 48.7516 95.5992 47.3011C94.844 47.2275 93.925 47.1601 92.8631 47.1014C89.5951 46.9206 85.2672 46.8367 80.9041 46.8466C76.5422 46.8564 72.2094 46.9597 68.9341 47.1457C67.6793 47.2169 66.618 47.2983 65.7876 47.3859C65.773 47.4586 65.758 47.5331 65.7426 47.6096C65.4555 49.0428 65.0727 51.0592 64.6177 53.5225C63.7087 58.4427 62.5217 65.0899 61.2538 72.3007C59.2648 83.9167 58.2684 90.4757 57.9661 94.6695C57.6798 98.6423 58.0407 100.156 58.6643 101.753C60.5054 106.097 64.5157 109.463 69.3655 111.096C74.2275 112.734 79.5397 112.497 83.7508 110.136ZM97.4571 47.5655C97.4567 47.5654 97.4563 47.5653 97.4559 47.5652C97.4692 47.5694 97.4704 47.5693 97.4571 47.5655ZM64.2514 47.6127C64.2515 47.6128 64.2551 47.6118 64.2621 47.6097C64.2548 47.6117 64.2514 47.6127 64.2514 47.6127ZM66.1814 45.5756C66.1922 45.5421 66.1975 45.5226 66.1974 45.5214C66.1973 45.5202 66.192 45.5369 66.1814 45.5756Z" stroke="#F8F8FF" stroke-width="7.13793"/>
<path d="M117.593 109.471L117.615 109.486L117.638 109.501C125.28 114.682 136.338 112.382 141.479 104.374C142.183 103.224 142.582 102.476 142.872 101.61C143.166 100.729 143.404 99.5521 143.541 97.5588C143.822 93.4513 143.637 86.6669 143.158 73.4151C142.842 65.8217 142.486 58.7898 142.171 53.585C142.013 50.9783 141.866 48.8478 141.74 47.3404C141.738 47.3111 141.735 47.282 141.733 47.2532C140.944 47.1634 139.957 47.0812 138.798 47.0101C135.544 46.8107 131.244 46.717 126.905 46.7268C122.568 46.7366 118.262 46.8497 115.001 47.0544C113.77 47.1317 112.728 47.2197 111.908 47.3141C111.902 47.3555 111.897 47.3974 111.892 47.4401C111.713 48.8605 111.504 50.8582 111.277 53.3021C110.825 58.1797 110.312 64.729 109.837 71.7659C108.876 86.6696 108.745 94.6631 109.914 99.7615C110.463 102.158 111.279 103.782 112.389 105.145C113.548 106.567 115.163 107.877 117.593 109.471ZM143.364 47.5164C143.363 47.5163 143.363 47.5162 143.363 47.5161C143.375 47.5202 143.376 47.52 143.364 47.5164ZM110.351 47.5643C110.351 47.5643 110.354 47.5634 110.36 47.5613C110.354 47.5632 110.351 47.5642 110.351 47.5643ZM112.173 45.5842C112.192 45.5207 112.192 45.5059 112.178 45.562C112.177 45.5663 112.175 45.5735 112.173 45.5842Z" stroke="#F8F8FF" stroke-width="7.13793"/>
<path d="M162.585 103.356C162.592 103.374 162.593 103.377 162.587 103.367L162.59 103.372C165.096 108.258 169.596 111.234 176.954 112.083C183.463 112.834 190.374 108.965 193.945 101.56C194.625 100.118 194.982 99.3023 195.2 98.4388C195.405 97.6257 195.523 96.6102 195.445 94.8713C195.279 91.2013 194.302 85.1787 192.22 72.7639C191.038 65.9104 189.779 59.4619 188.722 54.6047C188.192 52.1708 187.719 50.1659 187.336 48.7212C187.221 48.2851 187.117 47.9145 187.027 47.6079C186.993 47.5993 186.958 47.5906 186.921 47.5818C186.054 47.3727 184.796 47.1763 183.2 47.0138C180.033 46.6912 175.921 46.5394 171.792 46.5686C167.659 46.5978 163.628 46.8074 160.617 47.1788C159.407 47.3281 158.443 47.4939 157.739 47.6604C157.709 48.0712 157.686 48.5632 157.671 49.1375C157.624 50.8554 157.65 53.1295 157.739 55.8083C157.918 61.1554 158.344 67.9446 158.906 74.7679C159.468 81.5908 160.162 88.4011 160.868 93.79C161.222 96.4889 161.575 98.7926 161.909 100.547C162.076 101.426 162.232 102.129 162.371 102.657C162.487 103.091 162.564 103.299 162.585 103.356ZM187.745 47.8392C187.747 47.8389 187.732 47.831 187.7 47.8167C187.728 47.8325 187.744 47.8396 187.745 47.8392ZM186.732 46.7207C186.732 46.7212 186.736 46.7311 186.745 46.7489C186.744 46.7483 186.744 46.7477 186.744 46.7471C186.736 46.7285 186.732 46.7202 186.732 46.7207Z" stroke="#F8F8FF" stroke-width="7.13793"/>
<path d="M212.978 99.6068L212.987 99.6392L212.995 99.6718C213.578 101.944 215.313 104.734 217.803 107.206C220.289 109.675 223.118 111.417 225.473 112.006C230.525 113.269 237.482 111.32 241.554 107.116L241.574 107.096L241.594 107.076C243.419 105.251 244.58 103.785 245.318 102.299C246.029 100.867 246.441 99.2287 246.457 96.9436C246.492 92.0918 244.782 84.8954 240.86 71.9294L240.856 71.9175L240.853 71.9056C239.037 65.7485 237.222 59.9087 235.784 55.4569C235.065 53.2298 234.443 51.3609 233.966 49.979C233.75 49.354 233.567 48.8401 233.421 48.4434C232.892 48.262 232.019 48.0549 230.662 47.8598C227.85 47.4554 223.546 47.1807 217.221 47.0226L217.196 47.022L217.171 47.021C209.633 46.7254 205.662 46.624 203.531 46.7987C203.581 47.2383 203.647 47.771 203.731 48.3921C203.938 49.9367 204.239 51.9592 204.61 54.3216C205.352 59.0423 206.364 65.0573 207.442 71.1902C209.617 83.5613 212.004 96.0849 212.978 99.6068ZM233.812 48.6038C233.823 48.6105 233.828 48.6136 233.829 48.6134C233.829 48.6133 233.824 48.61 233.812 48.6038ZM203.44 45.4827C203.439 45.4819 203.437 45.4957 203.435 45.5266C203.439 45.499 203.44 45.4836 203.44 45.4827Z" stroke="#F8F8FF" stroke-width="7.13793"/>
<path d="M31.8933 126.202L31.872 126.208L31.8506 126.214L27.3621 127.411V174.317V221.966C27.3621 225.041 24.8687 227.534 21.7931 227.534H11.8965H3.56896V233.483V239.431H127.69H251.81V233.483V227.534H243.483H233.586C230.51 227.534 228.017 225.041 228.017 221.966V174C228.017 149.329 228.015 137.001 227.628 130.8C227.535 129.325 227.426 128.288 227.307 127.56C224.252 127.324 220.834 126.16 217.595 124.588C213.884 122.786 210.054 120.274 206.726 117.374C206.723 117.371 206.72 117.369 206.717 117.366L204.174 115.177L203.999 115.457L203.971 115.502L203.942 115.545C201.639 119 197.133 121.961 192.588 124.015C187.947 126.113 182.518 127.603 177.814 127.603C169.297 127.603 161.159 123.971 154.274 117.436C154.269 117.431 154.264 117.427 154.259 117.422L152.32 115.622L150.469 117.405L150.444 117.429L150.419 117.452C143.394 123.964 135.265 127.603 126.738 127.603C122.034 127.603 116.605 126.113 111.963 124.015C107.567 122.028 103.207 119.192 100.842 115.882L100.669 116.096C98.0401 119.487 93.8355 122.32 89.4376 124.296C84.9929 126.293 79.9309 127.603 75.3448 127.603C70.7602 127.603 65.7004 126.294 61.2791 124.319C56.9122 122.369 52.7303 119.574 50.1695 116.242L49.4075 115.29L46.3734 118.078C42.7403 121.519 36.3618 124.951 31.8933 126.202ZM26.1974 127.722C26.1987 127.721 26.2 127.721 26.2014 127.72L26.1974 127.722L25.7931 126.206L26.1974 127.722ZM50.6447 114.153L50.643 114.155L50.6447 114.153ZM87.6843 190.734L87.6762 190.734L87.6681 190.734L55.0189 190.285C52.0204 190.244 49.593 187.835 49.5278 184.837L49.0939 164.878L49.0939 164.878L48.6628 145.191C48.5945 142.068 51.1071 139.5 54.2305 139.5H87.2414H120.138C123.214 139.5 125.707 141.993 125.707 145.069V165.276V185.464C125.707 188.56 123.182 191.062 120.087 191.033L87.6843 190.734ZM206.603 183.517V221.966C206.603 225.041 204.11 227.534 201.034 227.534H176.862H152.69C149.614 227.534 147.121 225.041 147.121 221.966V183.517V145.069C147.121 141.993 149.614 139.5 152.69 139.5H176.862H201.034C204.11 139.5 206.603 141.993 206.603 145.069V183.517Z" stroke="#F8F8FF" stroke-width="7.13793"/>
</svg>
