<svg width="256" height="256" viewBox="0 0 256 256" fill="none" xmlns="http://www.w3.org/2000/svg">
<path d="M19.1928 15.2208C18.0825 16.6484 17.448 21.2484 17.7653 26.8001L18.2411 36.0001L125.151 36.476C202.717 36.6346 232.696 36.3174 234.124 35.0484C237.296 32.5105 236.979 18.7105 233.807 15.5381C231.586 13.3174 219.689 13.0001 126.262 13.0001C37.4342 13.0001 20.7791 13.3174 19.1928 15.2208Z" fill="#17347B"/>
<path d="M18.7177 45.0414C15.3866 47.5794 3.17285 87.2345 3.17285 95.3242C3.17285 103.255 8.72457 111.503 16.1797 114.2C28.2349 118.8 40.9246 111.979 44.097 99.2897C45.5246 93.4207 53.9315 46.6276 53.9315 44.4069C53.9315 42.3449 21.4142 42.9794 18.7177 45.0414Z" fill="#17347B"/>
<path d="M62.8133 44.4078C62.496 45.0423 60.2753 57.2561 57.7374 71.6905C53.7719 94.8491 53.6133 98.656 55.3581 103.097C59.9581 114.042 75.0271 119.118 85.496 113.249C94.5374 108.332 96.2822 102.78 98.1857 72.6423C98.9788 57.8905 99.4546 45.2009 98.9788 44.4078C98.0271 42.8216 63.765 42.9802 62.8133 44.4078Z" fill="#17347B"/>
<path d="M108.814 44.407C108.338 45.2001 107.228 57.4139 106.276 71.5311C104.373 101.035 105.483 105.793 115.635 112.455C124.993 118.8 138.318 115.945 144.504 106.269C147.518 101.352 147.676 99.607 146.724 73.276C146.09 58.0484 145.297 45.0415 144.98 44.407C143.869 42.6622 109.924 42.8208 108.814 44.407Z" fill="#17347B"/>
<path d="M154.497 45.3592C152.752 49.9592 156.876 100.083 159.414 105.001C162.587 111.187 168.297 114.676 176.545 115.628C184.793 116.58 193.042 111.663 197.166 103.097C199.862 97.3868 199.862 96.7523 195.738 72.1661C193.359 58.3661 190.662 46.1523 189.869 45.042C187.649 42.1868 155.607 42.3454 154.497 45.3592Z" fill="#17347B"/>
<path d="M199.862 45.6754C199.862 49.641 207.476 93.103 209.538 100.558C211.124 106.744 218.262 113.882 224.607 115.469C230.952 117.055 239.2 114.675 244.117 109.6C251.89 101.827 252.049 96.5927 244.276 70.8961C240.628 58.5237 236.98 47.4203 236.345 46.1513C235.235 44.5651 230 43.772 217.311 43.4548C201.131 42.8203 199.862 42.9789 199.862 45.6754Z" fill="#17347B"/>
<path d="M43.9379 115.469C40.7655 118.483 34.8965 121.655 30.931 122.766L25.2778 124.273C24.4023 124.507 23.7931 125.299 23.7931 126.206V174.317V221.966C23.7931 223.07 22.8977 223.966 21.7931 223.966H11.8965H2C0.895431 223.966 0 224.861 0 225.966V233.483V241C0 242.105 0.895431 243 2 243H127.69H253.379C254.484 243 255.379 242.105 255.379 241V233.483V225.966C255.379 224.861 254.484 223.966 253.379 223.966H243.483H233.586C232.482 223.966 231.586 223.07 231.586 221.966V174C231.586 124.828 231.586 124.035 228.414 124.035C223.338 124.035 215.248 120.069 209.062 114.676L205.118 111.279C204.189 110.48 202.766 110.696 202.117 111.735L200.972 113.566C197.483 118.8 185.903 124.035 177.814 124.035C170.359 124.035 163.062 120.862 156.717 114.835L153.662 111.997C152.884 111.275 151.678 111.286 150.914 112.022L147.993 114.835C141.49 120.862 134.193 124.035 126.738 124.035C118.648 124.035 107.069 118.8 103.579 113.566L102.688 112.139C101.959 110.974 100.3 110.873 99.436 111.943L97.8689 113.883C93.5862 119.435 83.2758 124.035 75.3448 124.035C67.4138 124.035 57.1034 119.435 52.9793 114.041L51.1448 111.748C50.4212 110.844 49.0828 110.741 48.2298 111.525L43.9379 115.469ZM122.138 165.276V185.464C122.138 186.576 121.231 187.474 120.119 187.464L87.7172 187.166L55.068 186.716C53.9911 186.701 53.1194 185.837 53.096 184.76L52.6621 164.8L52.231 145.113C52.2064 143.991 53.1088 143.069 54.2305 143.069H87.2414H120.138C121.242 143.069 122.138 143.964 122.138 145.069V165.276ZM203.034 183.517V221.966C203.034 223.07 202.139 223.966 201.034 223.966H176.862H152.69C151.585 223.966 150.69 223.07 150.69 221.966V183.517V145.069C150.69 143.964 151.585 143.069 152.69 143.069H176.862H201.034C202.139 143.069 203.034 143.964 203.034 145.069V183.517Z" fill="#17347B"/>
</svg>
