<svg width="256" height="256" viewBox="0 0 256 256" fill="none" xmlns="http://www.w3.org/2000/svg">
<path d="M174.576 222.212L152.805 172.552V130.772C152.805 130.068 152.526 129.394 152.03 128.896C151.534 128.399 150.861 128.119 150.16 128.119C149.458 128.119 148.785 128.399 148.289 128.896C147.793 129.394 147.514 130.068 147.514 130.772V136.077L128.335 147.219L138.15 130.321C138.325 130.018 138.438 129.684 138.483 129.337C138.529 128.99 138.505 128.637 138.414 128.299C138.323 127.962 138.167 127.645 137.953 127.368C137.74 127.092 137.474 126.86 137.171 126.687C136.567 126.339 135.85 126.244 135.176 126.422C134.503 126.601 133.927 127.039 133.573 127.642L123.653 144.699V85.2774L130.743 81.3513C131.357 80.9996 131.806 80.4177 131.992 79.7336C132.178 79.0496 132.085 78.3194 131.735 77.7038C131.384 77.0882 130.804 76.6376 130.121 76.451C129.439 76.2645 128.711 76.3573 128.097 76.7091H127.912L147.514 41.4277V51.6938C147.514 52.3973 147.793 53.072 148.289 53.5695C148.785 54.067 149.458 54.3465 150.16 54.3465C150.861 54.3465 151.534 54.067 152.03 53.5695C152.526 53.072 152.805 52.3973 152.805 51.6938V31.082C152.799 30.7639 152.737 30.4494 152.62 30.1536V29.9413C152.493 29.6686 152.323 29.4179 152.117 29.1986C151.965 29.0288 151.787 28.8854 151.588 28.7741L123.997 12.8577V3.65274C123.997 2.94919 123.718 2.27445 123.222 1.77697C122.726 1.27948 122.053 1 121.352 1C120.65 1 119.977 1.27948 119.481 1.77697C118.985 2.27445 118.706 2.94919 118.706 3.65274V12.6986L90.7182 28.9068C90.5257 29.0267 90.3481 29.1692 90.1891 29.3312C89.9834 29.5505 89.8137 29.8012 89.6865 30.074V30.2862C89.5698 30.582 89.5071 30.8965 89.5014 31.2147V35.2733L85.1894 37.6873V12.8843C85.1806 12.5751 85.1179 12.2698 85.0042 11.9823V11.7701C84.877 11.4973 84.7074 11.2466 84.5016 11.0273C84.3498 10.8576 84.171 10.7142 83.9725 10.6029L76.2481 6.35852C75.8459 6.12569 75.3898 6.00313 74.9254 6.00313C74.461 6.00313 74.0049 6.12569 73.6027 6.35852L65.5343 11.0273C65.1138 11.2651 64.7662 11.6137 64.5291 12.0354C64.2961 12.4475 64.1773 12.9146 64.1852 13.3883V79.521C64.188 79.9839 64.3115 80.438 64.5436 80.8383C64.7756 81.2385 65.1081 81.5708 65.5079 81.8023L72.8091 86.0202H73.444C73.6628 86.0583 73.8865 86.0583 74.1053 86.0202H74.3963C74.5183 86.0476 74.6447 86.0476 74.7667 86.0202C74.7667 86.0202 74.7667 86.0202 74.9783 86.0202C75.1237 85.9793 75.2653 85.9261 75.4016 85.861L83.4964 81.1922C83.9001 80.9585 84.235 80.6219 84.4673 80.2166C84.6996 79.8114 84.8209 79.3517 84.8191 78.8843V65.6206H85.0042L89.2104 63.2597V119.471C89.2104 120.175 89.4891 120.849 89.9852 121.347C90.4813 121.844 91.1541 122.124 91.8557 122.124C92.5573 122.124 93.2302 121.844 93.7263 121.347C94.2224 120.849 94.5011 120.175 94.5011 119.471V111.221L114.87 147.882L113.151 146.9C112.851 146.724 112.518 146.609 112.174 146.561C111.829 146.514 111.478 146.535 111.141 146.623C110.804 146.712 110.489 146.867 110.212 147.078C109.934 147.289 109.702 147.554 109.527 147.855C109.352 148.158 109.238 148.493 109.193 148.84C109.148 149.186 109.171 149.539 109.262 149.877C109.353 150.215 109.51 150.531 109.723 150.808C109.936 151.085 110.202 151.316 110.506 151.49L118.283 155.999V179.741L108.839 162.605C108.454 162.074 107.886 161.705 107.245 161.569C106.604 161.434 105.936 161.541 105.37 161.872C104.804 162.202 104.38 162.731 104.18 163.356C103.98 163.981 104.019 164.659 104.289 165.257L114.13 182.951L93.3371 170.908C93.2228 170.895 93.1076 170.895 92.9932 170.908H92.1203C91.9537 170.882 91.7842 170.882 91.6176 170.908H91.0621L90.7711 171.093C90.6129 171.167 90.4622 171.256 90.3214 171.359C90.3214 171.359 90.3214 171.359 90.3214 171.491V171.677L90.0833 171.942C90.0958 171.986 90.0958 172.032 90.0833 172.075L68.1268 222.265C68.1268 222.265 68.1268 222.424 68.1268 222.53C68.0997 222.697 68.0997 222.867 68.1268 223.034C68.1135 223.202 68.1135 223.37 68.1268 223.538C68.1141 223.697 68.1141 223.857 68.1268 224.015C68.1859 224.197 68.2566 224.374 68.3384 224.546V224.758L68.5765 225.023V225.183C68.7871 225.406 69.0386 225.586 69.3172 225.713C69.6176 225.846 69.9412 225.918 70.2695 225.925C70.5592 225.926 70.8464 225.872 71.1161 225.766C71.3298 225.705 71.5344 225.616 71.7245 225.501L101.458 206.083L118.838 253.832C118.873 253.909 118.917 253.98 118.971 254.044C119.064 254.218 119.179 254.379 119.315 254.522H119.473L119.95 254.84H120.188C120.732 255.053 121.336 255.053 121.881 254.84H122.092C122.264 254.756 122.425 254.649 122.568 254.522H122.754L123.071 254.071C123.08 253.992 123.08 253.911 123.071 253.832L140.504 206.083L170.264 225.501C170.703 225.769 171.205 225.915 171.719 225.925C172.155 225.918 172.582 225.803 172.962 225.591C173.343 225.378 173.665 225.075 173.901 224.708C174.137 224.34 174.278 223.92 174.313 223.485C174.347 223.049 174.274 222.612 174.1 222.212H174.576ZM74.9519 11.717L76.9623 12.8843L74.1318 14.5024L72.1213 13.3352L74.9519 11.717ZM79.6077 77.5049L76.8036 79.1496V61.3497C76.8036 60.6462 76.5249 59.9714 76.0288 59.474C75.5327 58.9765 74.8598 58.697 74.1582 58.697C73.4566 58.697 72.7838 58.9765 72.2877 59.474C71.7916 59.9714 71.5129 60.6462 71.5129 61.3497V79.1496L69.4759 77.9824V17.9244L71.5129 19.0917V39.5442C71.5129 40.2478 71.7916 40.9225 72.2877 41.42C72.7838 41.9175 73.4566 42.197 74.1582 42.197C74.8598 42.197 75.5327 41.9175 76.0288 41.42C76.5249 40.9225 76.8036 40.2478 76.8036 39.5442V19.0917L79.6077 17.4735V77.5049ZM89.2897 57.2645L84.8984 59.7316V43.8151L89.2897 41.3481V57.2645ZM76.0629 216.243L91.8028 180.245L99.395 201.016L76.0629 216.243ZM97.0407 179.105L116.087 190.14L103.945 198.098L97.0407 179.105ZM118.468 237.942L105.797 203.165L118.468 194.915V237.942ZM143.255 144.752L123.759 179.821V155.946L143.255 144.752ZM147.62 147.776V171.65L128.097 182.898L147.62 147.776ZM123.812 73.4992V49.492L143.52 38.0587L123.812 73.4992ZM94.7127 41.4807L113.997 76.1785L94.7127 65.0105V41.4807ZM94.7127 100.265V77.2927L113.786 111.619L94.9244 100.69L94.7127 100.265ZM118.521 143.107L100.003 109.683L118.521 120.453V143.107ZM118.521 109.179L98.5221 73.4727L118.389 84.9856L118.521 109.179ZM118.521 73.4197L98.7337 38.0852L118.389 49.492L118.521 73.4197ZM121.166 44.8232L97.3581 31.029L118.68 18.6937V29.8352C118.68 30.5388 118.958 31.2135 119.455 31.711C119.951 32.2085 120.624 32.488 121.325 32.488C122.027 32.488 122.7 32.2085 123.196 31.711C123.692 31.2135 123.97 30.5388 123.97 29.8352V18.7733L145.133 30.9759L121.166 44.8232ZM123.812 237.889V194.862L136.536 203.138L123.812 237.889ZM138.414 198.098L126.245 190.14L145.345 179.105L138.414 198.098ZM142.938 201.069L150.556 180.272L166.429 216.269L142.938 201.069Z" fill="#F8F8FF"/>
<path d="M129.076 101.088C129.076 108.781 131.589 114.935 136.113 118.384L136.351 118.543L146.297 124.458C146.646 124.658 147.035 124.776 147.435 124.803C149.545 125.829 151.862 126.356 154.207 126.342C158.572 126.201 162.824 124.911 166.534 122.601C180.872 114.298 192.512 94.0579 192.512 77.5049C192.512 69.0161 189.549 62.57 184.153 59.3336L176.957 55.5402C171.375 51.1102 163.439 51.2958 155.159 56.0973C140.742 64.2677 129.076 84.5081 129.076 101.088ZM181.322 63.7902C185.131 65.992 187.221 70.8465 187.221 77.4783C187.221 92.3867 176.772 110.558 163.889 118.012C158.175 121.328 152.911 121.938 149.101 119.736C145.292 117.535 143.229 112.654 143.229 106.022C143.229 91.1399 153.678 72.9687 166.534 65.5145C169.445 63.6813 172.782 62.6391 176.216 62.4904C178.003 62.4609 179.766 62.9096 181.322 63.7902ZM157.699 60.5804C159.56 59.2857 161.663 58.3831 163.882 57.9271C166.101 57.4711 168.389 57.4714 170.608 57.9277C168.26 58.6157 166.004 59.5866 163.889 60.8192C149.578 69.0957 137.938 89.3361 137.938 105.916C137.912 108.549 138.25 111.174 138.943 113.715C137.315 112.045 136.063 110.044 135.274 107.847C134.484 105.65 134.175 103.309 134.367 100.982C134.367 86.2058 144.842 68.0346 157.699 60.5804Z" fill="#F8F8FF"/>
<path d="M79.2373 167.141C81.5077 168.551 84.1076 169.337 86.7766 169.422C88.5036 169.442 90.2038 168.993 91.697 168.122L92.0938 167.857L102.146 162.021L102.411 161.835C103.914 160.529 105.095 158.891 105.862 157.05C106.628 155.209 106.959 153.215 106.828 151.224C106.598 145.904 105.095 140.718 102.448 136.101C99.8012 131.485 96.0867 127.573 91.6176 124.697C86.565 121.779 81.6446 121.673 78.0998 124.432L70.1637 128.782C69.9644 128.903 69.7857 129.055 69.6347 129.233H69.3437C67.5371 130.473 66.0938 132.174 65.1636 134.161C64.2333 136.148 63.8499 138.348 64.0529 140.534C64.2706 145.865 65.7638 151.065 68.4065 155.696C71.0493 160.327 74.764 164.252 79.2373 167.141ZM80.851 129.021L81.2743 128.756C83.0202 127.297 85.8243 127.535 88.9723 129.339C92.6246 131.747 95.6699 134.972 97.8687 138.761C100.067 142.549 101.36 146.797 101.644 151.171C101.76 152.325 101.624 153.49 101.245 154.585C100.866 155.68 100.252 156.679 99.4479 157.511L97.0936 158.891C97.1344 158.202 97.1344 157.511 97.0936 156.822C96.867 151.5 95.3666 146.312 92.7191 141.695C90.0716 137.078 86.3548 133.167 81.8827 130.294C81.2963 129.943 80.6864 129.633 80.0574 129.366L80.851 129.021ZM72.0684 134.008C72.7662 133.629 73.5499 133.437 74.3434 133.451C76.0791 133.536 77.7641 134.065 79.2373 134.99C82.8729 137.406 85.8998 140.636 88.0802 144.424C90.2605 148.212 91.5348 152.456 91.8028 156.822C91.9366 158.056 91.7652 159.304 91.3039 160.456C90.8425 161.608 90.1053 162.628 89.1575 163.427L88.8665 163.586C87.7029 164.003 86.455 164.127 85.2326 163.946C84.0102 163.766 82.8507 163.287 81.8562 162.552C78.225 160.13 75.2013 156.9 73.0215 153.113C70.8417 149.325 69.5648 145.084 69.2908 140.72C69.1443 139.456 69.3227 138.176 69.8088 137.001C70.295 135.827 71.0729 134.796 72.0684 134.008Z" fill="#F8F8FF"/>
</svg>
