<svg width="256" height="258" viewBox="0 0 256 258" fill="none" xmlns="http://www.w3.org/2000/svg">
<path d="M63.0518 0.852705C58.6014 3.0534 51.7009 18.9584 49.4507 32.0625C47.9506 40.7152 48.3006 54.6696 50.1507 62.5221C52.6009 72.8253 56.8513 82.5784 62.0517 89.9807C64.8019 93.932 66.7521 95.1824 69.9524 95.1324C73.6527 95.0823 77.0029 91.6313 77.0029 87.9301C77.0029 85.6794 76.7029 85.0792 73.6527 80.4277C66.9021 70.1745 63.5018 58.4708 63.5018 45.5668C63.5018 33.9631 65.852 24.5101 71.2525 14.2069C74.3027 8.35506 74.5527 6.85459 72.9026 3.90366C70.9024 0.402564 66.6521 -0.897845 63.0518 0.852705Z" fill="#17347B"/>
<path d="M186.561 0.952737C184.511 2.05308 182.511 5.20407 182.511 7.30473C182.511 8.155 183.811 11.356 185.511 14.8071C191.412 26.4107 193.262 34.6633 192.862 47.5174C192.662 54.1695 192.362 56.7703 191.362 60.8216C189.812 66.8235 186.962 73.6256 183.961 78.5771C182.761 80.5278 181.261 82.9285 180.661 83.9288C177.761 88.7303 181.111 95.0823 186.561 95.1324C189.762 95.1824 191.712 93.932 194.462 89.9807C199.663 82.5784 203.913 72.8253 206.363 62.5221C208.213 54.6696 208.563 40.7152 207.063 32.0625C205.413 22.4095 201.363 11.456 196.912 4.45384C194.212 0.202501 190.362 -1.09791 186.561 0.952737Z" fill="#17347B"/>
<path d="M83.1535 23.9601C80.5532 25.1605 79.4031 26.9611 77.903 32.2127C76.9029 35.7638 76.7529 37.3643 76.7529 45.2668C76.7529 53.2193 76.9029 54.7698 77.953 58.421C79.3531 63.3225 80.6532 65.4732 83.0034 66.6235C86.3537 68.3241 90.254 67.2738 92.3542 64.0727C93.8043 61.9221 93.8543 59.2212 92.5042 54.4197C91.8042 51.8189 91.5041 49.2681 91.5041 45.4669C91.5041 41.8157 91.8042 38.9649 92.5042 36.264C93.0543 34.1133 93.5043 31.4625 93.5043 30.4122C93.5043 25.0105 88.1039 21.6594 83.1535 23.9601Z" fill="#17347B"/>
<path d="M120.906 23.96C114.905 25.9106 110.305 30.0119 107.355 35.9638C105.805 39.1147 105.755 39.5149 105.755 45.2667C105.755 50.9685 105.855 51.4186 107.355 54.6196C108.205 56.4702 109.955 59.071 111.205 60.4214L113.455 62.8222L80.7527 154.701C56.6007 222.472 48 247.18 48 248.781C48 254.132 53.7505 257.683 58.5009 255.183C59.4509 254.683 75.5522 242.879 94.2038 228.924C116.106 212.569 128.357 203.716 128.707 204.017C135.257 209.168 195.762 254.532 197.012 255.183C201.713 257.633 207.513 254.132 207.513 248.781C207.513 247.28 198.562 221.572 174.76 154.751L142.058 62.8722L144.358 60.3214C145.608 58.921 147.358 56.3201 148.208 54.5196C149.658 51.4686 149.758 50.9685 149.758 45.2667C149.758 39.5149 149.708 39.1147 148.158 35.9638C144.058 27.6111 136.657 22.9597 127.606 23.0597C125.306 23.0597 122.606 23.4598 120.906 23.96ZM133.107 40.4152C134.807 42.2657 135.007 42.7659 135.007 45.0666C135.007 51.2186 128.957 54.7196 123.806 51.5686C119.506 48.9178 119.206 42.4658 123.206 39.5149C125.006 38.2145 125.706 38.0144 128.457 38.2145C130.907 38.3645 131.357 38.5646 133.107 40.4152ZM135.957 90.4309C140.108 102.085 143.558 111.888 143.608 112.288C143.758 112.838 128.907 124.542 128.107 124.542C127.456 124.542 112.055 112.738 112.055 112.188C112.005 111.738 125.606 73.1254 127.306 68.8241C127.556 68.1239 127.757 68.0738 128.057 68.624C128.257 68.9741 131.807 78.8272 135.957 90.4309ZM111.205 130.844C113.655 132.644 115.405 134.295 115.155 134.545C113.455 136.045 100.404 145.598 100.204 145.448C99.9542 145.148 106.155 127.543 106.555 127.543C106.705 127.543 108.805 129.043 111.205 130.844ZM152.359 136.395C154.009 141.047 155.309 144.898 155.209 144.998C154.959 145.298 140.958 134.395 141.108 133.995C141.308 133.494 148.558 128.043 149.008 128.043C149.208 128.043 150.708 131.794 152.359 136.395ZM142.658 154.501C152.959 162.253 155.409 164.354 154.909 164.804C153.709 165.905 128.457 184.56 128.157 184.56C128.007 184.56 121.856 180.009 114.455 174.407C101.904 164.954 101.104 164.254 101.904 163.504C102.354 163.054 108.455 158.402 115.405 153.101C126.356 144.898 128.207 143.648 128.957 144.198C129.407 144.498 135.557 149.149 142.658 154.501ZM97.004 180.059C100.454 182.66 106.005 186.861 109.405 189.462L115.556 194.163L93.5037 210.669C81.3527 219.722 71.3019 227.074 71.2019 226.924C71.1019 226.824 74.8022 215.97 79.5026 202.766C90.3035 172.457 89.5534 174.457 90.2034 174.957C90.5035 175.208 93.5537 177.508 97.004 180.059ZM175.36 201.166C180.411 215.22 184.411 226.824 184.361 226.924C184.111 227.124 141.008 194.514 141.008 194.113C141.058 193.763 165.56 175.558 166.01 175.558C166.16 175.558 170.36 187.061 175.36 201.166Z" fill="#17347B"/>
<path d="M168.261 23.3603C166.611 23.8104 164.561 25.511 163.71 27.1615C162.66 29.1621 162.71 31.3628 164.011 36.2143C165.411 41.6661 165.411 49.4185 163.961 54.5201C162.66 59.2216 162.66 61.5723 163.811 63.5729C166.661 68.4245 173.261 68.7246 176.312 64.1731C176.912 63.2729 177.912 60.672 178.562 58.4213C179.612 54.7702 179.762 53.2197 179.762 45.2672C179.762 37.3647 179.612 35.7642 178.612 32.2131C177.112 26.9114 175.961 25.1609 173.361 24.0105C171.261 23.0602 170.161 22.9102 168.261 23.3603Z" fill="#17347B"/>
</svg>
