<svg width="256" height="256" viewBox="0 0 256 256" fill="none" xmlns="http://www.w3.org/2000/svg">
<path d="M141.166 86.1592V85.6592V85.5902V85.5213V85.4525V85.3838V85.3152V85.2466V85.1782V85.1098V85.0414V84.9732V84.905V84.837V84.769V84.7011V84.6332V84.5655V84.4978V84.4302V84.3627V84.2953V84.228V84.1607V84.0935V84.0264V83.9594V83.8925V83.8256V83.7589V83.6922V83.6256V83.5591V83.4926V83.4263V83.36V83.2938V83.2277V83.1617V83.0958V83.0299V82.9641V82.8985V82.8329V82.7673V82.7019V82.6366V82.5713V82.5061V82.441V82.376V82.3111V82.2462V82.1815V82.1168V82.0522V81.9877V81.9233V81.859V81.7947V81.7306V81.6665V81.6025V81.5386V81.4748V81.4111V81.3475V81.2839V81.2204V81.157V81.0938V81.0305V80.9674V80.9044V80.8414V80.7786V80.7158V80.6531V80.5905V80.528V80.4656V80.4033V80.341V80.2788V80.2168V80.1548V80.0929V80.0311V79.9694V79.9077V79.8462V79.7848V79.7234V79.6621V79.6009V79.5398V79.4788V79.4179V79.3571V79.2963V79.2357V79.1751V79.1147V79.0543V78.994V78.9338V78.8737V78.8137V78.7538V78.6939V78.6342V78.5745V78.515V78.4555V78.3961V78.3368V78.2776V78.2185V78.1595V78.1006V78.0417V77.983V77.9243V77.8658V77.8073V77.7489V77.6907V77.6325V77.5744V77.5164V77.4585V77.4007V77.3429V77.2853V77.2278V77.1703V77.113V77.0557V76.9985V76.9415V76.8845V76.8276V76.7708V76.7141V76.6575V76.601V76.5446V76.4883V76.4321V76.3759V76.3199V76.264V76.2081V76.1524V76.0967V76.0412V75.9857V75.9303V75.8751V75.8199V75.7648V75.7098V75.6549V75.6001V75.5454V75.4908V75.4363V75.3819V75.3276V75.2734V75.2193V75.1653V75.1113V75.0575V75.0038V74.9501V74.8966V74.8432V74.7898V74.7366V74.6834V74.6304V74.5775V74.5246V74.4718V74.4192V74.3666V74.3142V74.2618V74.2096V74.1574V74.1053V74.0534V74.0015V73.9498V73.8981V73.8465V73.7951V73.7437V73.6924V73.6413V73.5902V73.5392V73.4883V73.4376V73.3869V73.3363V73.2859V73.2355V73.1852V73.1351V73.085V73.0351V72.9852V72.9354V72.8858V72.8362V72.7868V72.7374V72.6882V72.639V72.59V72.541V72.4922V72.4434V72.3948V72.3463V72.2978V72.2495V72.2013V72.1531V72.1051V72.0572V72.0094V71.9617V71.9141V71.8665V71.8191V71.7718V71.7246V71.6776V71.6306V71.5837V71.5369V71.4902V71.4437V71.3972V71.3508V71.3046V71.2584V71.2124V71.1664V71.1206V71.0749V71.0292V70.9837V70.9383V70.893V70.8478V70.8027V70.7577V70.7128V70.668V70.6233V70.5788V70.5343V70.4899V70.4457V70.4015V70.3575V70.3136V70.2697V70.226V70.1824V70.1389V70.0955V70.0522V70.0091V69.966V69.923V69.8802V69.8374V69.7948V69.7523V69.7098V69.6675V69.6253V69.5832V69.5412V69.4993V69.4576V69.4159V69.3744V69.3329V69.2916V69.2503V69.2092V69.1682V69.1273V69.0865V69.0459V69.0053V68.9648V68.9245V68.8843V68.8441V68.8041V68.7642V68.7244V68.6847V68.6452V68.6057V68.5663V68.5271V68.488V68.449V68.4101V68.3713V68.3326V68.294V68.2556V68.2172V68.179V68.1409V68.1028V68.0649V68.0272V67.9895V67.9519V67.9145V67.8772V67.8399V67.8028V67.7658V67.729V67.6922V67.6555V67.619V67.5826V67.5463V67.5101V67.474V67.438V67.4021V67.3664V67.3308V67.2953V67.2599V67.2246V67.1894V67.1544V67.1194V67.0846V67.0499V67.0153V66.9808V66.9465V66.9122V66.8781V66.8441V66.8102V66.7764V66.7427V66.7092V66.6758V66.6424V66.6092V66.5761V66.5432V66.5103V66.4776V66.445V66.4125V66.3801V66.3478V66.3157V66.2837V66.2518V66.22V66.1883V66.1567V66.1253V66.094V66.0628V66.0317V66.0007V65.9699V65.9391V65.9085V65.878V65.8477V65.8174V65.7873V65.7573V65.7274V65.6976V65.6679V65.6384V65.609V65.5797V65.5505V65.5214V65.4925V65.4637V65.435V65.4064V65.378V65.3496V65.3214V65.2933V65.2654V65.2375V65.2098V65.1822V65.1547V65.1273V65.1001V65.073V65.046V65.0191V64.9923V64.9657V64.9392V64.9128V64.8865V64.8604V64.8344V64.8085V64.7827V64.757V64.7315V64.7061V64.6808V64.6556V64.6306V64.6057V64.5809V64.5562V64.5317V64.5073V64.483V64.4588V64.4348V64.4108V64.387V64.3634V64.3398V64.3164V64.2931V64.2699V64.2469V64.224V64.2012V64.1785V64.1559V64.1335V64.1112V64.0891V64.067V64.0451V64.0233V64.0016V63.9801V63.9587V63.9374V63.9162V63.8952V63.8743V63.8535V63.8329V63.8123V63.7919V63.7717V63.7515V63.7315V63.7116V63.6919V63.6722V63.6527V63.6333V63.6141V63.595V63.576V63.5571V63.5384V63.5198V63.5013V63.4829V63.4647V63.4466V63.4287V63.4108V63.3931V63.3755V63.3581V63.3408V63.3236V63.3065V63.2896V63.2728V63.2561V63.2396V63.2232V63.2069V63.1908V63.1748V63.1589V63.1431V63.1275V63.112V63.0966V63.0814V63.0663V63.0513V86.1592ZM141.166 86.1592H141.666M141.166 86.1592H141.666M141.666 86.1592H183.134L178.703 121.251H141.666H141.166V121.751V122.078V122.404V122.732V123.059V123.387V123.716V124.045V124.374V124.704V125.034V125.364V125.695V126.026V126.358V126.69V127.022V127.355V127.688V128.021V128.355V128.689V129.024V129.359V129.694V130.029V130.365V130.701V131.038V131.374V131.712V132.049V132.387V132.725V133.063V133.402V133.74V134.08V134.419V134.759V135.099V135.439V135.779V136.12V136.461V136.803V137.144V137.486V137.828V138.17V138.513V138.855V139.198V139.541V139.885V140.228V140.572V140.916V141.26V141.604V141.949V142.293V142.638V142.983V143.329V143.674V144.02V144.365V144.711V145.057V145.403V145.75V146.096V146.443V146.789V147.136V147.483V147.83V148.177V148.524V148.872V149.219V149.567V149.914V150.262V150.61V150.958V151.306V151.654V152.002V152.35V152.698V153.047V153.395V153.743V154.092V154.44V154.789V155.137V155.486V155.834V156.183V156.531V156.88V157.229V157.577V157.926V158.274V158.623V158.971V159.32V159.668V160.017V160.365V160.714V161.062V161.41V161.759V162.107V162.455V162.803V163.151V163.499V163.847V164.194V164.542V164.89V165.237V165.585V165.932V166.279V166.626V166.973V167.32V167.667V168.013V168.36V168.706V169.052V169.398V169.744V170.09V170.435V170.781V171.126V171.471V171.816V172.161V172.505V172.85V173.194V173.538V173.882V174.225V174.569V174.912V175.255V175.598V175.94V176.282V176.624V176.966V177.308V177.649V177.99V178.331V178.672V179.012V179.352V179.692V180.031V180.371V180.71V181.048V181.387V181.725V182.062V182.4V182.737V183.074V183.411V183.747V184.083V184.418V184.754V185.088V185.423V185.757V186.091V186.425V186.758V187.091V187.423V187.755V188.087V188.418V188.749V189.08V189.41V189.74V190.069V190.398V190.727V191.055V191.382V191.71V192.037V192.363V192.689V193.015V193.34V193.665V193.989V194.313V194.636V194.959V195.281V195.603V195.925V196.246V196.566V196.886V197.206V197.525V197.843V198.161V198.479V198.796V199.113V199.428V199.744V200.059V200.373V200.687V201.001V201.313V201.626V201.937V202.248V202.559V202.869V203.178V203.487V203.795V204.103V204.41V204.717V205.023V205.328V205.633V205.937V206.24V206.543V206.845V207.147V207.448V207.748V208.048V208.347V208.646V208.943V209.241V209.537V209.833V210.128V210.423V210.716V211.01V211.302V211.594V211.885V212.175V212.465V212.754V213.042V213.33V213.617V213.903V214.188V214.473V214.757V215.04V215.322V215.604V215.885V216.165V216.445V216.723V217.001V217.278V217.555V217.83V218.105V218.379V218.652V218.925V219.196V219.467V219.737V220.006V220.275V220.542V220.809V221.075V221.34V221.604V221.868V222.13V222.392V222.653V222.913V223.172V223.43V223.688V223.944V224.2V224.455V224.708V224.961V225.213V225.465V225.715V225.964V226.213V226.46V226.707V226.953V227.197V227.441V227.684V227.926V228.167V228.407V228.646V228.884V229.121V229.358V229.593V229.827V230.06V230.293V230.524V230.754V230.984V231.212V231.439V231.666V231.891V232.115V232.338V232.561V232.782V233.002V233.221V233.439V233.656V233.872V234.087V234.301V234.514V234.725V234.936V235.146V235.354V235.562V235.768V235.973V236.177V236.38V236.582V236.783V236.983V237.181V237.379V237.575V237.771V237.965V238.158V238.349V238.54V238.73V238.918V239.105V239.291V239.476V239.66V239.842V240.023V240.204V240.383V240.56V240.737V240.912V241.086V241.259V241.431V241.602V241.771V241.939V242.106V242.271V242.436V242.599V242.761V242.921V243.081V243.239V243.396V243.551V243.706V243.859V244.01V244.161V244.31V244.458V244.604V244.75V244.894V245.036V245.178V245.318V245.456V245.594V245.73V245.865V245.998V246.13V246.261V246.39V246.518V246.645V246.77V246.894V247.016V247.137V247.257V247.376V247.492V247.608V247.722V247.835V247.946V248.056V248.165V248.272V248.378V248.482V248.585V248.686V248.786V248.885V248.982V249.078V249.172V249.264V249.356V249.445V249.534V249.621V249.706V249.79V249.872V249.953V250.032V250.11V250.187V250.262V250.335V250.407V250.477V250.546V250.613V250.679V250.743V250.806V250.867V250.926V250.984V251.041V251.095V251.149V251.2V251.251V251.299V251.346V251.391V251.435V251.477V251.5M141.666 86.1592L141.166 251.5M141.166 251.5H92.4207V251.484V251.442V251.399V251.354V251.308V251.26V251.211V251.16V251.107V251.053V250.997V250.94V250.881V250.821V250.759V250.695V250.631V250.564V250.496V250.427V250.356V250.283V250.209V250.134V250.057V249.979V249.899V249.817V249.734V249.65V249.564V249.477V249.388V249.298V249.207V249.113V249.019V248.923V248.826V248.727V248.627V248.525V248.422V248.317V248.211V248.104V247.995V247.885V247.774V247.661V247.547V247.431V247.314V247.196V247.076V246.955V246.832V246.708V246.583V246.457V246.329V246.2V246.069V245.937V245.804V245.669V245.533V245.396V245.258V245.118V244.977V244.834V244.691V244.546V244.399V244.252V244.103V243.953V243.801V243.649V243.495V243.34V243.183V243.025V242.866V242.706V242.545V242.382V242.218V242.053V241.887V241.719V241.55V241.38V241.209V241.037V240.863V240.688V240.512V240.335V240.157V239.977V239.797V239.615V239.432V239.247V239.062V238.876V238.688V238.499V238.309V238.118V237.926V237.732V237.538V237.342V237.146V236.948V236.749V236.549V236.348V236.145V235.942V235.738V235.532V235.325V235.118V234.909V234.699V234.488V234.276V234.063V233.849V233.634V233.418V233.201V232.982V232.763V232.543V232.322V232.099V231.876V231.652V231.426V231.2V230.972V230.744V230.515V230.284V230.053V229.821V229.587V229.353V229.118V228.882V228.644V228.406V228.167V227.927V227.686V227.444V227.201V226.958V226.713V226.467V226.221V225.973V225.725V225.476V225.225V224.974V224.722V224.47V224.216V223.961V223.706V223.449V223.192V222.934V222.675V222.415V222.154V221.893V221.63V221.367V221.103V220.838V220.572V220.306V220.038V219.77V219.501V219.231V218.961V218.689V218.417V218.144V217.87V217.595V217.32V217.044V216.767V216.489V216.211V215.931V215.651V215.371V215.089V214.807V214.524V214.24V213.956V213.671V213.385V213.098V212.811V212.523V212.234V211.944V211.654V211.363V211.072V210.779V210.486V210.193V209.898V209.603V209.308V209.011V208.715V208.417V208.119V207.82V207.52V207.22V206.919V206.618V206.315V206.013V205.709V205.405V205.101V204.796V204.49V204.183V203.876V203.569V203.261V202.952V202.643V202.333V202.022V201.711V201.4V201.087V200.775V200.461V200.148V199.833V199.518V199.203V198.887V198.57V198.253V197.936V197.618V197.299V196.98V196.661V196.34V196.02V195.699V195.377V195.055V194.733V194.41V194.086V193.762V193.438V193.113V192.788V192.462V192.136V191.809V191.482V191.155V190.827V190.499V190.17V189.841V189.511V189.181V188.851V188.52V188.188V187.857V187.525V187.192V186.86V186.527V186.193V185.859V185.525V185.19V184.855V184.52V184.184V183.848V183.512V183.175V182.838V182.501V182.163V181.825V181.487V181.148V180.809V180.47V180.131V179.791V179.451V179.11V178.77V178.429V178.087V177.746V177.404V177.062V176.72V176.377V176.034V175.691V175.348V175.004V174.66V174.316V173.972V173.628V173.283V172.938V172.593V172.248V171.902V171.556V171.21V170.864V170.518V170.172V169.825V169.478V169.131V168.784V168.437V168.089V167.741V167.394V167.046V166.698V166.349V166.001V165.652V165.304V164.955V164.606V164.257V163.908V163.559V163.21V162.86V162.511V162.161V161.812V161.462V161.112V160.762V160.412V160.062V159.712V159.362V159.012V158.662V158.311V157.961V157.611V157.26V156.91V156.559V156.209V155.858V155.508V155.157V154.807V154.456V154.106V153.755V153.405V153.054V152.704V152.353V152.003V151.653V151.302V150.952V150.602V150.251V149.901V149.551V149.201V148.851V148.501V148.151V147.802V147.452V147.102V146.753V146.404V146.054V145.705V145.356V145.007V144.658V144.309V143.961V143.612V143.264V142.915V142.567V142.219V141.871V141.524V141.176V140.829V140.482V140.135V139.788V139.441V139.094V138.748V138.402V138.056V137.71V137.365V137.019V136.674V136.329V135.984V135.64V135.295V134.951V134.607V134.264V133.92V133.577V133.234V132.892V132.549V132.207V131.865V131.524V131.182V130.841V130.501V130.16V129.82V129.48V129.14V128.801V128.462V128.123V127.785V127.447V127.109V126.771V126.434V126.098V125.761V125.425V125.089V124.754V124.419V124.084V123.75V123.416V123.082V122.749V122.416V122.083V121.751V121.251H91.9207H66.5V86.1592H91.9207H92.4207V85.6592V85.5754V85.4916V85.408V85.3245V85.241V85.1577V85.0744V84.9913V84.9082V84.8253V84.7424V84.6596V84.577V84.4944V84.4119V84.3295V84.2473V84.1651V84.083V84.001V83.9191V83.8373V83.7556V83.674V83.5925V83.5111V83.4298V83.3486V83.2674V83.1864V83.1055V83.0247V82.944V82.8634V82.7829V82.7025V82.6221V82.5419V82.4618V82.3818V82.3019V82.2221V82.1423V82.0627V81.9832V81.9038V81.8245V81.7453V81.6662V81.5872V81.5083V81.4295V81.3508V81.2722V81.1937V81.1153V81.037V80.9588V80.8807V80.8027V80.7249V80.6471V80.5694V80.4919V80.4144V80.337V80.2598V80.1826V80.1056V80.0286V79.9518V79.8751V79.7985V79.7219V79.6455V79.5692V79.493V79.4169V79.3409V79.265V79.1892V79.1136V79.038V78.9625V78.8872V78.8119V78.7368V78.6617V78.5868V78.512V78.4373V78.3627V78.2882V78.2138V78.1395V78.0653V77.9913V77.9173V77.8435V77.7697V77.6961V77.6226V77.5492V77.4759V77.4027V77.3296V77.2566V77.1838V77.111V77.0384V76.9658V76.8934V76.8211V76.7489V76.6768V76.6048V76.533V76.4612V76.3896V76.318V76.2466V76.1753V76.1041V76.033V75.9621V75.8912V75.8205V75.7498V75.6793V75.6089V75.5386V75.4684V75.3984V75.3284V75.2586V75.1889V75.1193V75.0498V74.9804V74.9111V74.842V74.7729V74.704V74.6352V74.5665V74.4979V74.4295V74.3611V74.2929V74.2248V74.1568V74.0889V74.0211V73.9535V73.886V73.8185V73.7513V73.6841V73.617V73.5501V73.4832V73.4165V73.3499V73.2835V73.2171V73.1509V73.0847V73.0188V72.9529V72.8871V72.8215V72.7559V72.6905V72.6253V72.5601V72.495V72.4301V72.3653V72.3006V72.2361V72.1716V72.1073V72.0431V71.979V71.915V71.8512V71.7875V71.7239V71.6604V71.5971V71.5338V71.4707V71.4077V71.3449V71.2821V71.2195V71.157V71.0946V71.0324V70.9702V70.9082V70.8464V70.7846V70.723V70.6614V70.6001V70.5388V70.4777V70.4166V70.3558V70.295V70.2344V70.1738V70.1134V70.0532V69.993V69.933V69.8732V69.8134V69.7538V69.6942V69.6349V69.5756V69.5165V69.4575V69.3986V69.3399V69.2812V69.2227V69.1644V69.1061V69.048V68.99V68.9322V68.8745V68.8169V68.7594V68.702V68.6448V68.5878V68.5308V68.474V68.4173V68.3607V68.3043V68.248V68.1918V68.1357V68.0798V68.024V67.9684V67.9129V67.8575V67.8022V67.7471V67.6921V67.6372V67.5825V67.5279V67.4734V67.419V67.3648V67.3108V67.2568V67.203V67.1493V67.0958V67.0424V66.9891V66.9359V66.8829V66.83V66.7773V66.7247V66.6722V66.6198V66.5676V66.5155V66.4636V66.4118V66.3601V66.3086V66.2572V66.2059V66.1548V66.1038V66.0529V66.0022V65.9516V65.9012V65.8508V65.8007V65.7506V65.7007V65.6509V65.6013V65.5518V65.5024V65.4532V65.4041V65.3552V65.3064V65.2577V65.2092V65.1608V65.1125V65.0644V65.0164V64.9686V64.9209V64.8733V64.8259V64.7786V64.7315V64.6845V64.6376V64.5909V64.5443V64.4978V64.4515V64.4054V64.3594V64.3135V64.2677V64.2221V64.1767V64.1314V64.0862V64.0411V63.9963V63.9515V63.9069V63.8624V63.8181V63.7739V63.7299V63.686V63.6422V63.5986V63.5552V63.5118V63.4687V63.4256V63.3827V63.34V63.2974V63.2549V63.2126V63.1704V63.1284V63.0865V63.0448V63.0032V62.9618V62.9205V62.8793V62.8383V62.7974V62.7567V62.7162V62.6757V62.6355V62.5953V62.5553V62.5155V62.4758V62.4363V62.3969V62.3576V62.3185V62.2796V62.2408V62.2021V62.1636V62.1252V62.087V62.049V62.0111V61.9733V61.9357V61.8982V61.8609V61.8237V61.7867V61.7498V61.7131V61.6765V61.6401V61.6038V61.5677V61.5318V61.4959V61.4603V61.4248V61.3894V61.3542V61.3191V61.2842V61.2495V61.2148V61.1804V61.1461V61.1119V61.0779V61.0441V61.0104V60.9769V60.9435V60.9102V60.8772V60.8442V60.8115V60.7788V60.7464V60.7141V60.6819V60.6499V60.6181V60.5864V60.5548V60.5234V60.4922V60.4611V60.4302V60.3995V60.3689V60.3384V60.3081V60.278V60.248V60.2182V60.1885V60.159V60.1296V60.1004V60.0714V60.0425V60.0138V59.9852V59.9568V59.9285V59.9004V59.8725V59.8447V59.8171V59.7896V59.7623V59.7351V59.7082V59.6813V59.6547V59.6281V59.6018V59.5756V59.5496V59.5237V59.498V59.4724V59.447V59.4218V59.3967V59.3718V59.3471V59.3225V59.2981V59.2738V59.2497V59.2258V59.202V59.1784V59.1549V59.1316V59.1085V59.0855V59.0627V59.0401V59.0176V58.9953V58.9731V58.9511V58.9293V58.9076V58.8861V58.8648V58.8436V58.8226V58.8018V58.7811V58.7606V58.7402V58.72V58.7V58.6801V58.6605V58.6409V58.6216V58.6024V58.5834V58.5645V58.5458V58.5273V58.5089V58.4907V58.4727V58.4548V58.4371V58.4196V58.4022V58.3851V58.368V58.3512V58.3345L141.166 251.5Z" fill="#F8F8FF" stroke="#F8F8FF"/>
</svg>
