<svg width="256" height="256" viewBox="0 0 256 256" fill="none" xmlns="http://www.w3.org/2000/svg">
<path d="M9.40976 42.11C4 48.3334 4 59.0038 4 80.3445V198.064C4 213.178 4 220.735 7.90105 226.425C11.802 232.113 18.6222 234.503 32.2627 239.283L48.3106 244.905C57.0022 247.952 63.6902 250.294 69.3027 251.803C72.964 252.788 76.3335 249.883 76.3335 246.054V56.1868C76.3335 53.0673 74.0557 50.4346 71.064 49.6676C66.2375 48.4303 60.4359 46.3974 52.4844 43.6114C33.2239 36.8628 23.5938 33.4886 16.2664 36.9152C13.6647 38.1317 11.3304 39.9003 9.40976 42.11Z" fill="#F8F8FF"/>
<path d="M135.693 21.2318L116.647 34.5787C109.756 39.4072 104.707 42.9458 100.395 45.4687C98.351 46.6644 97 48.8273 97 51.2139V239.787C97 244.432 101.761 247.331 105.633 244.828C109.787 242.142 114.545 238.809 120.307 234.769L139.354 221.422C146.243 216.595 151.294 213.056 155.605 210.533C157.65 209.338 159 207.174 159 204.788V16.2147C159 11.5704 154.239 8.67062 150.367 11.1733C146.213 13.8596 141.455 17.1936 135.693 21.2318Z" fill="#F8F8FF"/>
<path d="M223.738 16.709L207.69 11.0861C198.997 8.04039 192.31 5.69747 186.698 4.18845C183.036 3.20416 179.667 6.10878 179.667 9.93791V199.805C179.667 202.924 181.945 205.557 184.936 206.324C189.763 207.561 195.565 209.594 203.516 212.38C222.776 219.128 232.407 222.503 239.734 219.077C242.336 217.86 244.669 216.092 246.59 213.881C252 207.659 252 196.987 252 175.647V57.9272C252 42.8135 252 35.2566 248.099 29.5674C244.198 23.8781 237.378 21.4885 223.738 16.709Z" fill="#F8F8FF"/>
</svg>
