<svg width="256" height="256" viewBox="0 0 256 256" fill="none" xmlns="http://www.w3.org/2000/svg">
<path d="M4 38.4444C4 156.388 99.6121 252 217.556 252C222.877 252 228.152 251.806 233.377 251.423C239.371 250.983 242.368 250.764 245.097 249.193C247.357 247.893 249.499 245.586 250.632 243.237C252 240.402 252 237.094 252 230.479V191.663C252 186.1 252 183.318 251.084 180.934C250.276 178.828 248.962 176.952 247.259 175.473C245.332 173.797 242.717 172.847 237.489 170.945L193.307 154.879C187.224 152.668 184.182 151.561 181.297 151.749C178.752 151.914 176.304 152.783 174.223 154.258C171.864 155.929 170.2 158.704 166.87 164.255L155.556 183.111C119.046 166.576 89.4484 136.94 72.8889 100.444L91.7456 89.1304C97.2955 85.8005 100.071 84.1354 101.742 81.7764C103.217 79.6962 104.086 77.2478 104.251 74.7034C104.439 71.8179 103.332 68.7766 101.121 62.694L85.0545 18.5109C83.1533 13.2829 82.2028 10.6689 80.5276 8.74093C79.0477 7.03786 77.1723 5.72429 75.0661 4.91553C72.6817 4 69.9002 4 64.3373 4H25.521C18.9059 4 15.5983 4 12.7624 5.36745C10.4136 6.50012 8.10771 8.64325 6.80653 10.9031C5.23559 13.6316 5.01611 16.629 4.57715 22.6238C4.19468 27.8474 4 33.1232 4 38.4444Z" fill="#F8F8FF"/>
</svg>
