<svg width="256" height="256" viewBox="0 0 256 256" fill="none" xmlns="http://www.w3.org/2000/svg">
<path d="M250.804 40.9494L250.804 40.9501L213.379 221.358C213.379 221.359 213.379 221.36 213.378 221.361C211.978 227.667 209.486 231.451 206.195 232.988C202.916 234.518 198.655 233.903 193.495 230.953L136.491 188.017L136.147 187.758L135.839 188.06L108.326 215.115L108.319 215.122C106.787 216.688 105.434 218.067 103.75 219.066C102.189 219.993 100.324 220.603 97.7502 220.678L101.8 162.055L207.339 64.5742C207.339 64.5739 207.34 64.5735 207.34 64.5732C208.522 63.4969 209.156 62.4491 209.189 61.5052C209.225 60.4882 208.567 59.7765 207.63 59.4348C206.712 59.1001 205.474 59.0854 204.101 59.4047C202.72 59.7257 201.165 60.3926 199.586 61.4697C199.584 61.471 199.582 61.4722 199.581 61.4735L69.132 145.438L13.1072 127.509L13.1068 127.509C10.0917 126.547 7.86168 125.309 6.42897 123.931C5.00367 122.56 4.38421 121.072 4.51395 119.562C4.64498 118.037 5.54886 116.386 7.39132 114.725C9.23158 113.065 11.9738 111.429 15.691 109.942C15.6912 109.942 15.6914 109.942 15.6917 109.942L235.696 23.3005C235.697 23.3002 235.697 23.2999 235.698 23.2996C240.671 21.3955 245.216 21.9957 248.119 24.8687C251.034 27.7532 252.448 33.0769 250.804 40.9494Z" fill="#F8F8FF" stroke="#F8F8FF"/>
</svg>
