<svg width="256" height="256" viewBox="0 0 256 256" fill="none" xmlns="http://www.w3.org/2000/svg">
<path d="M33.566 211.636C26.8838 210.277 21.0662 207.246 16.8173 202.844C13.5194 199.515 10.9007 194.443 8.87502 187.409C4.05786 171.161 -2.20449 70.8518 17.7805 52.1468C22.5236 47.7448 28.0449 44.9116 34.2455 43.7394L33.566 211.636ZM33.566 211.636C52.2788 215.54 148.684 217.722 221.077 212.222L33.566 211.636ZM102.557 160.337V161.159L103.286 160.782C107.879 158.407 112.417 156.07 116.882 153.77C136.425 143.702 154.565 134.357 169.765 125.856L170.559 125.412L169.758 124.98C163.411 121.555 157.336 118.199 151.333 114.882C135.954 106.385 121.05 98.1507 103.271 89.7144L102.557 89.3754V90.1661V160.337ZM221.378 44.2305L221.38 44.2307C228.992 45.6672 236.135 50.0053 240.316 55.5508C243.948 61.3299 246.788 72.2516 248.696 85.7634C250.602 99.2623 251.569 115.265 251.496 131.121C251.424 146.978 250.312 162.672 248.069 175.556C246.948 181.998 245.545 187.726 243.853 192.416C242.158 197.113 240.188 200.726 237.954 202.979C233.374 207.491 227.571 210.568 221.014 211.726C184.842 214.473 142.668 215.301 107.196 214.955C89.4566 214.782 73.3967 214.316 60.6048 213.649C47.7995 212.981 38.303 212.114 33.6681 211.147L33.6657 211.146C27.069 209.805 21.3467 206.817 17.177 202.497L17.1725 202.492C13.9573 199.246 11.3696 194.264 9.35551 187.271L9.3544 187.267C8.16704 183.262 6.8749 173.996 5.9223 162.011C4.97116 150.043 4.36191 135.412 4.52692 120.705C4.69197 105.995 5.63146 91.2249 7.77298 78.9739C8.84376 72.8482 10.2129 67.3653 11.9299 62.8402C13.6492 58.3089 15.7031 54.7764 18.1213 52.5126C22.7979 48.1726 28.2341 45.3846 34.3384 44.2307L34.3398 44.2304C39.9719 43.1483 53.0495 42.3308 69.9026 41.7859C86.7375 41.2415 107.295 40.9699 127.854 40.9707C148.414 40.9715 168.972 41.2446 185.808 41.7894C202.663 42.3347 215.743 43.1514 221.378 44.2305Z" fill="#F8F8FF" stroke="#F8F8FF"/>
</svg>
