<?xml version="1.0" standalone="no"?>
<!DOCTYPE svg PUBLIC "-//W3C//DTD SVG 20010904//EN"
 "http://www.w3.org/TR/2001/REC-SVG-20010904/DTD/svg10.dtd">
<svg version="1.0" xmlns="http://www.w3.org/2000/svg"
 width="512.000000pt" height="512.000000pt" viewBox="0 0 512.000000 512.000000"
 preserveAspectRatio="xMidYMid meet">

<g transform="translate(0.000000,512.000000) scale(0.100000,-0.100000)"
fill="#000000" stroke="none">
<path d="M1550 4651 c-73 -23 -119 -63 -145 -123 -13 -33 -15 -258 -15 -2068
l0 -2030 370 0 370 0 0 378 c0 441 2 456 75 520 27 23 63 44 90 51 60 15 472
15 533 -1 64 -16 134 -86 150 -150 8 -32 12 -168 12 -422 l0 -376 370 0 370 0
0 1743 c0 1674 -1 1744 -19 1782 -22 48 -64 89 -111 108 -62 26 -1944 586
-1985 591 -22 3 -51 2 -65 -3z m871 -1270 l29 -29 0 -152 0 -152 -29 -29 -29
-29 -152 0 -152 0 -29 29 -29 29 0 152 0 152 29 29 29 29 152 0 152 0 29 -29z
m640 0 l29 -29 0 -152 0 -152 -29 -29 -29 -29 -152 0 -152 0 -29 29 -29 29 0
152 0 152 29 29 29 29 152 0 152 0 29 -29z m-640 -640 l29 -29 0 -152 0 -152
-29 -29 -29 -29 -152 0 -152 0 -29 29 -29 29 0 152 0 152 29 29 29 29 152 0
152 0 29 -29z m640 0 l29 -29 0 -152 0 -152 -29 -29 -29 -29 -152 0 -152 0
-29 29 -29 29 0 152 0 152 29 29 29 29 152 0 152 0 29 -29z m-640 -640 l29
-29 0 -152 0 -152 -29 -29 -29 -29 -152 0 -152 0 -29 29 -29 29 0 152 0 152
29 29 29 29 152 0 152 0 29 -29z m640 0 l29 -29 0 -152 0 -152 -29 -29 -29
-29 -152 0 -152 0 -29 29 -29 29 0 152 0 152 29 29 29 29 152 0 152 0 29 -29z"/>
<path d="M765 4033 c-47 -24 -86 -64 -106 -108 -18 -38 -19 -105 -19 -1662 l0
-1623 -66 0 c-101 0 -144 -35 -144 -116 0 -26 8 -44 29 -65 l29 -29 341 0 341
0 0 1810 0 1810 -187 0 c-151 -1 -194 -4 -218 -17z"/>
<path d="M3950 1835 l0 -1405 341 0 341 0 29 29 c33 33 39 83 15 130 -20 37
-55 51 -131 51 l-65 0 0 1103 c0 684 -4 1115 -10 1137 -19 70 -61 103 -290
234 -121 69 -222 126 -225 126 -3 0 -5 -632 -5 -1405z"/>
<path d="M2350 800 l0 -370 210 0 210 0 0 370 0 370 -210 0 -210 0 0 -370z"/>
</g>
</svg>
